<svg width="95" height="96" viewBox="0 0 95 96" fill="none" xmlns="http://www.w3.org/2000/svg">
<path d="M94.24 0.00320015C75.2416 0.7008 59.8336 4.8096 48.0544 11.1456L42.1728 20.9792L41.1808 15.3728C39.0784 16.8512 37.1296 18.4096 35.3344 20.0448L32.4 29.0464L31.392 24.016C22.6752 33.7728 18.7776 45.5712 19.76 57.6288H5.0336V67.4304H13.0944L4.4448 75.024L0 91.9936L2.9024 95.1616H38.288L41.1904 91.9936L36.7456 75.024L28.56 67.4304H35.6192V57.6288H22.6432C27.7504 54.9824 32.7104 51.3216 37.6192 47.0912L31.6608 47.4016L31.7152 47.3408L42.4128 42.7872C51.7664 34.0768 61.0624 23.8272 71.008 15.1872L66.1152 14.1504L77.4272 9.936C82.7808 5.8528 88.3488 2.3904 94.24 0V0.00320015Z" fill="#7A5C3C"/>
</svg>
