<svg width="303" height="96" viewBox="0 0 303 96" fill="none" xmlns="http://www.w3.org/2000/svg">
<g clip-path="url(#clip0_8_34)">
<path d="M94.3648 81.1632L95.184 81.4704C94.8427 83.0405 94.399 84.3547 93.8528 85.4128C93.3067 86.5051 92.6411 87.3755 91.856 88.024C91.2075 88.6043 90.32 89.1163 89.1936 89.56C88.0672 90.0037 86.6848 90.2256 85.0464 90.2256C83.2374 90.2256 81.4624 89.9184 79.7216 89.304C78.015 88.7237 76.24 88.0069 74.3968 87.1536C72.5878 86.3344 70.608 85.5493 68.4576 84.7984C68.2187 84.7301 67.9968 84.6619 67.792 84.5936C67.5872 84.5253 67.3995 84.4741 67.2288 84.44C66.5803 84.7131 65.8806 84.9179 65.1296 85.0544C64.3787 85.2251 63.6619 85.3104 62.9792 85.3104C62.2966 85.3104 61.7334 85.208 61.2896 85.0032C60.8459 84.8325 60.624 84.5595 60.624 84.184C60.624 83.3989 61.5456 83.0064 63.3888 83.0064C64.5835 83.0064 65.8635 83.1771 67.2288 83.5184C68.4918 83.1771 69.567 82.7845 70.4544 82.3408C71.3419 81.9312 72.2635 81.5387 73.2192 81.1632C74.175 80.7877 75.3184 80.5488 76.6496 80.4464L76.7008 81.2656C75.6768 81.368 74.7723 81.5557 73.9872 81.8288C73.2363 82.136 72.4854 82.4603 71.7344 82.8016C70.9835 83.1429 70.079 83.4672 69.0208 83.7744C70.9664 84.0475 72.9632 84.3376 75.0112 84.6448C77.0592 84.9861 79.0048 85.2421 80.848 85.4128C82.6912 85.6176 84.2955 85.6859 85.6608 85.6176C87.9819 85.5493 89.8251 85.1568 91.1904 84.44C92.5558 83.7573 93.6139 82.6651 94.3648 81.1632ZM75.2672 43.6336C78.6123 43.6336 81.5478 44.3675 84.0736 45.8352C86.6336 47.3029 88.6134 49.4192 90.0128 52.184C91.4123 54.9147 92.112 58.2427 92.112 62.168C92.112 65.9909 91.3952 69.336 89.9616 72.2032C88.528 75.0704 86.5312 77.3061 83.9712 78.9104C81.4112 80.5147 78.4928 81.3168 75.216 81.3168C71.8368 81.3168 68.8843 80.5829 66.3584 79.1152C63.8326 77.6475 61.8699 75.5312 60.4704 72.7664C59.071 70.0016 58.3712 66.6736 58.3712 62.7824C58.3712 58.9595 59.088 55.6144 60.5216 52.7472C61.9894 49.88 63.9862 47.6443 66.512 46.04C69.0379 44.4357 71.9563 43.6336 75.2672 43.6336ZM75.0624 44.5552C72.9462 44.5552 71.103 45.3232 69.5328 46.8592C67.9627 48.3952 66.751 50.5115 65.8976 53.208C65.0443 55.9045 64.6176 59.0277 64.6176 62.5776C64.6176 66.1957 65.0955 69.3531 66.0512 72.0496C67.007 74.712 68.304 76.7771 69.9424 78.2448C71.5808 79.6784 73.407 80.3952 75.4208 80.3952C77.5371 80.3952 79.3632 79.6272 80.8992 78.0912C82.4694 76.5552 83.6811 74.4389 84.5344 71.7424C85.4219 69.0117 85.8656 65.8885 85.8656 62.3728C85.8656 58.7205 85.3707 55.5632 84.3808 52.9008C83.4251 50.2384 82.128 48.1904 80.4896 46.7568C78.8854 45.2891 77.0763 44.5552 75.0624 44.5552ZM120.006 53.6176V75.0704C120.006 76.6064 120.262 77.7499 120.774 78.5008C121.321 79.2176 122.293 79.576 123.693 79.576V80.6512C122.635 80.5488 121.577 80.4976 120.518 80.4976C119.392 80.4976 118.317 80.5488 117.293 80.6512C116.269 80.7536 115.33 80.9413 114.477 81.2144V75.6336C113.623 77.6816 112.429 79.1493 110.893 80.0368C109.391 80.8901 107.804 81.3168 106.131 81.3168C104.868 81.3168 103.793 81.1291 102.906 80.7536C102.018 80.4123 101.284 79.9515 100.704 79.3712C100.09 78.6885 99.663 77.8181 99.424 76.76C99.1851 75.6677 99.0656 74.3024 99.0656 72.664V59.7616C99.0656 58.2256 98.8096 57.0992 98.2976 56.3824C97.7856 55.6315 96.8128 55.256 95.3792 55.256V54.1808C96.4715 54.2832 97.5296 54.3344 98.5536 54.3344C99.68 54.3344 100.755 54.2832 101.779 54.1808C102.803 54.0443 103.742 53.8565 104.595 53.6176V74.0976C104.595 75.0875 104.663 75.992 104.8 76.8112C104.937 77.6304 105.261 78.2789 105.773 78.7568C106.285 79.2347 107.104 79.4736 108.23 79.4736C109.425 79.4736 110.483 79.1152 111.405 78.3984C112.361 77.6816 113.111 76.7088 113.658 75.48C114.204 74.2512 114.477 72.8688 114.477 71.3328V59.7616C114.477 58.2256 114.221 57.0992 113.709 56.3824C113.197 55.6315 112.224 55.256 110.79 55.256V54.1808C111.883 54.2832 112.941 54.3344 113.965 54.3344C115.091 54.3344 116.166 54.2832 117.19 54.1808C118.214 54.0443 119.153 53.8565 120.006 53.6176ZM132.288 41.2784C133.346 41.2784 134.233 41.6197 134.95 42.3024C135.667 42.9509 136.025 43.7701 136.025 44.76C136.025 45.7499 135.667 46.5861 134.95 47.2688C134.233 47.9173 133.346 48.2416 132.288 48.2416C131.229 48.2416 130.342 47.9173 129.625 47.2688C128.908 46.5861 128.55 45.7499 128.55 44.76C128.55 43.7701 128.908 42.9509 129.625 42.3024C130.342 41.6197 131.229 41.2784 132.288 41.2784ZM135.36 53.6176V75.8384C135.36 77.272 135.633 78.2448 136.179 78.7568C136.759 79.2688 137.715 79.5248 139.046 79.5248V80.6C138.466 80.5659 137.561 80.5317 136.332 80.4976C135.138 80.4293 133.909 80.3952 132.646 80.3952C131.451 80.3952 130.223 80.4293 128.96 80.4976C127.697 80.5317 126.758 80.5659 126.144 80.6V79.5248C127.475 79.5248 128.413 79.2688 128.96 78.7568C129.54 78.2448 129.83 77.272 129.83 75.8384V59.7616C129.83 58.2256 129.574 57.0992 129.062 56.3824C128.55 55.6315 127.577 55.256 126.144 55.256V54.1808C127.236 54.2832 128.294 54.3344 129.318 54.3344C130.479 54.3344 131.554 54.2832 132.544 54.1808C133.568 54.0443 134.506 53.8565 135.36 53.6176ZM150.402 40.4592V75.8384C150.402 77.272 150.675 78.2448 151.222 78.7568C151.802 79.2688 152.758 79.5248 154.089 79.5248V80.6C153.509 80.5659 152.604 80.5317 151.375 80.4976C150.146 80.4293 148.918 80.3952 147.689 80.3952C146.46 80.3952 145.214 80.4293 143.951 80.4976C142.722 80.5317 141.801 80.5659 141.186 80.6V79.5248C142.518 79.5248 143.456 79.2688 144.002 78.7568C144.583 78.2448 144.873 77.272 144.873 75.8384V46.6032C144.873 45.0672 144.617 43.9408 144.105 43.224C143.593 42.4731 142.62 42.0976 141.186 42.0976V41.0224C142.279 41.1248 143.337 41.176 144.361 41.176C145.487 41.176 146.562 41.1248 147.586 41.0224C148.61 40.8859 149.549 40.6981 150.402 40.4592ZM165.552 40.4592V75.8384C165.552 77.272 165.825 78.2448 166.372 78.7568C166.952 79.2688 167.908 79.5248 169.239 79.5248V80.6C168.659 80.5659 167.754 80.5317 166.525 80.4976C165.296 80.4293 164.068 80.3952 162.839 80.3952C161.61 80.3952 160.364 80.4293 159.101 80.4976C157.872 80.5317 156.951 80.5659 156.336 80.6V79.5248C157.668 79.5248 158.606 79.2688 159.152 78.7568C159.733 78.2448 160.023 77.272 160.023 75.8384V46.6032C160.023 45.0672 159.767 43.9408 159.255 43.224C158.743 42.4731 157.77 42.0976 156.336 42.0976V41.0224C157.429 41.1248 158.487 41.176 159.511 41.176C160.637 41.176 161.712 41.1248 162.736 41.0224C163.76 40.8859 164.699 40.6981 165.552 40.4592ZM208.865 81.1632L209.684 81.4704C209.343 83.0405 208.899 84.3547 208.353 85.4128C207.807 86.5051 207.141 87.3755 206.356 88.024C205.707 88.6043 204.82 89.1163 203.694 89.56C202.567 90.0037 201.185 90.2256 199.546 90.2256C197.737 90.2256 195.962 89.9184 194.222 89.304C192.515 88.7237 190.74 88.0069 188.897 87.1536C187.088 86.3344 185.108 85.5493 182.958 84.7984C182.719 84.7301 182.497 84.6619 182.292 84.5936C182.087 84.5253 181.899 84.4741 181.729 84.44C181.08 84.7131 180.381 84.9179 179.63 85.0544C178.879 85.2251 178.162 85.3104 177.479 85.3104C176.797 85.3104 176.233 85.208 175.79 85.0032C175.346 84.8325 175.124 84.5595 175.124 84.184C175.124 83.3989 176.046 83.0064 177.889 83.0064C179.083 83.0064 180.363 83.1771 181.729 83.5184C182.992 83.1771 184.067 82.7845 184.954 82.3408C185.842 81.9312 186.763 81.5387 187.719 81.1632C188.675 80.7877 189.818 80.5488 191.15 80.4464L191.201 81.2656C190.177 81.368 189.272 81.5557 188.487 81.8288C187.736 82.136 186.985 82.4603 186.234 82.8016C185.483 83.1429 184.579 83.4672 183.521 83.7744C185.466 84.0475 187.463 84.3376 189.511 84.6448C191.559 84.9861 193.505 85.2421 195.348 85.4128C197.191 85.6176 198.795 85.6859 200.161 85.6176C202.482 85.5493 204.325 85.1568 205.69 84.44C207.056 83.7573 208.114 82.6651 208.865 81.1632ZM189.767 43.6336C193.112 43.6336 196.048 44.3675 198.574 45.8352C201.134 47.3029 203.113 49.4192 204.513 52.184C205.912 54.9147 206.612 58.2427 206.612 62.168C206.612 65.9909 205.895 69.336 204.462 72.2032C203.028 75.0704 201.031 77.3061 198.471 78.9104C195.911 80.5147 192.993 81.3168 189.716 81.3168C186.337 81.3168 183.384 80.5829 180.858 79.1152C178.333 77.6475 176.37 75.5312 174.97 72.7664C173.571 70.0016 172.871 66.6736 172.871 62.7824C172.871 58.9595 173.588 55.6144 175.022 52.7472C176.489 49.88 178.486 47.6443 181.012 46.04C183.538 44.4357 186.456 43.6336 189.767 43.6336ZM189.562 44.5552C187.446 44.5552 185.603 45.3232 184.033 46.8592C182.463 48.3952 181.251 50.5115 180.398 53.208C179.544 55.9045 179.118 59.0277 179.118 62.5776C179.118 66.1957 179.595 69.3531 180.551 72.0496C181.507 74.712 182.804 76.7771 184.442 78.2448C186.081 79.6784 187.907 80.3952 189.921 80.3952C192.037 80.3952 193.863 79.6272 195.399 78.0912C196.969 76.5552 198.181 74.4389 199.034 71.7424C199.922 69.0117 200.366 65.8885 200.366 62.3728C200.366 58.7205 199.871 55.5632 198.881 52.9008C197.925 50.2384 196.628 48.1904 194.99 46.7568C193.385 45.2891 191.576 44.5552 189.562 44.5552ZM234.506 53.6176V75.0704C234.506 76.6064 234.762 77.7499 235.274 78.5008C235.821 79.2176 236.793 79.576 238.193 79.576V80.6512C237.135 80.5488 236.077 80.4976 235.018 80.4976C233.892 80.4976 232.817 80.5488 231.793 80.6512C230.769 80.7536 229.83 80.9413 228.977 81.2144V75.6336C228.123 77.6816 226.929 79.1493 225.393 80.0368C223.891 80.8901 222.304 81.3168 220.631 81.3168C219.368 81.3168 218.293 81.1291 217.406 80.7536C216.518 80.4123 215.784 79.9515 215.204 79.3712C214.59 78.6885 214.163 77.8181 213.924 76.76C213.685 75.6677 213.566 74.3024 213.566 72.664V59.7616C213.566 58.2256 213.31 57.0992 212.798 56.3824C212.286 55.6315 211.313 55.256 209.879 55.256V54.1808C210.971 54.2832 212.03 54.3344 213.054 54.3344C214.18 54.3344 215.255 54.2832 216.279 54.1808C217.303 54.0443 218.242 53.8565 219.095 53.6176V74.0976C219.095 75.0875 219.163 75.992 219.3 76.8112C219.437 77.6304 219.761 78.2789 220.273 78.7568C220.785 79.2347 221.604 79.4736 222.73 79.4736C223.925 79.4736 224.983 79.1152 225.905 78.3984C226.861 77.6816 227.611 76.7088 228.158 75.48C228.704 74.2512 228.977 72.8688 228.977 71.3328V59.7616C228.977 58.2256 228.721 57.0992 228.209 56.3824C227.697 55.6315 226.724 55.256 225.29 55.256V54.1808C226.383 54.2832 227.441 54.3344 228.465 54.3344C229.591 54.3344 230.666 54.2832 231.69 54.1808C232.714 54.0443 233.653 53.8565 234.506 53.6176ZM253.341 53.464C256.345 53.464 258.7 54.3685 260.407 56.1776C262.113 57.9867 262.967 60.8539 262.967 64.7792H245.303L245.2 63.8064H257.54C257.574 62.1339 257.437 60.5979 257.13 59.1984C256.823 57.7648 256.345 56.6213 255.696 55.768C255.048 54.9147 254.195 54.488 253.136 54.488C251.669 54.488 250.389 55.2731 249.296 56.8432C248.238 58.3792 247.59 60.8539 247.351 64.2672L247.504 64.5232C247.47 65.0011 247.436 65.5301 247.402 66.1104C247.368 66.6565 247.351 67.2027 247.351 67.7488C247.351 70.104 247.709 72.0837 248.426 73.688C249.143 75.2923 250.081 76.504 251.242 77.3232C252.403 78.1083 253.58 78.5008 254.775 78.5008C255.696 78.5008 256.584 78.3643 257.437 78.0912C258.325 77.784 259.161 77.2891 259.946 76.6064C260.731 75.8896 261.431 74.9168 262.045 73.688L263.069 74.0976C262.66 75.2581 262.028 76.4016 261.175 77.528C260.321 78.6544 259.229 79.576 257.898 80.2928C256.567 80.9755 255.014 81.3168 253.239 81.3168C250.849 81.3168 248.767 80.7877 246.992 79.7296C245.217 78.6373 243.852 77.0843 242.896 75.0704C241.941 73.0565 241.463 70.6672 241.463 67.9024C241.463 64.8645 241.958 62.2704 242.948 60.12C243.937 57.9696 245.32 56.3312 247.095 55.2048C248.904 54.0443 250.986 53.464 253.341 53.464ZM276.017 53.464C277.382 53.464 278.56 53.6859 279.55 54.1296C280.574 54.5392 281.307 54.9147 281.751 55.256C282.878 56.1435 283.577 55.5632 283.85 53.5152H284.977C284.909 54.4709 284.857 55.6315 284.823 56.9968C284.789 58.328 284.772 60.1029 284.772 62.3216H283.646C283.441 61.0587 283.082 59.8299 282.57 58.6352C282.093 57.4405 281.376 56.4507 280.42 55.6656C279.498 54.8805 278.287 54.488 276.785 54.488C275.658 54.488 274.72 54.8123 273.969 55.4608C273.218 56.0752 272.842 56.9968 272.842 58.2256C272.842 59.2496 273.15 60.1371 273.764 60.888C274.378 61.6389 275.163 62.3387 276.119 62.9872C277.109 63.6357 278.167 64.3355 279.294 65.0864C280.557 65.9397 281.683 66.7931 282.673 67.6464C283.697 68.4656 284.499 69.3872 285.079 70.4112C285.694 71.4352 286.001 72.6299 286.001 73.9952C286.001 75.5653 285.574 76.8965 284.721 77.9888C283.902 79.0811 282.809 79.9173 281.444 80.4976C280.079 81.0437 278.577 81.3168 276.938 81.3168C276.119 81.3168 275.351 81.2315 274.634 81.0608C273.918 80.9243 273.252 80.7365 272.638 80.4976C272.262 80.2928 271.887 80.088 271.511 79.8832C271.17 79.6443 270.829 79.4224 270.487 79.2176C270.146 78.9787 269.839 79.0128 269.566 79.32C269.293 79.6272 269.088 80.1733 268.951 80.9584H267.825C267.893 79.8661 267.944 78.5349 267.978 76.9648C268.013 75.3947 268.03 73.3125 268.03 70.7184H269.156C269.395 72.5957 269.753 74.2512 270.231 75.6848C270.709 77.1184 271.409 78.2448 272.33 79.064C273.286 79.8491 274.583 80.2416 276.222 80.2416C276.87 80.2416 277.519 80.1051 278.167 79.832C278.816 79.5248 279.345 79.0469 279.754 78.3984C280.198 77.7499 280.42 76.8795 280.42 75.7872C280.42 74.2853 279.891 73.0565 278.833 72.1008C277.809 71.1109 276.478 70.0699 274.839 68.9776C273.679 68.1584 272.569 67.3563 271.511 66.5712C270.487 65.752 269.651 64.8475 269.002 63.8576C268.354 62.8336 268.03 61.6219 268.03 60.2224C268.03 58.6864 268.388 57.4235 269.105 56.4336C269.856 55.4437 270.846 54.7099 272.074 54.232C273.303 53.72 274.617 53.464 276.017 53.464ZM298.604 45.7328V54.232H305.669V55.256H298.604V75.3776C298.604 76.7771 298.86 77.7669 299.372 78.3472C299.884 78.9275 300.617 79.2176 301.573 79.2176C302.461 79.2176 303.246 78.8592 303.928 78.1424C304.645 77.4256 305.26 76.2139 305.772 74.5072L306.744 74.8656C306.335 76.6747 305.601 78.2107 304.543 79.4736C303.519 80.7024 302 81.3168 299.986 81.3168C298.825 81.3168 297.853 81.1632 297.068 80.856C296.283 80.5829 295.6 80.1733 295.02 79.6272C294.269 78.8421 293.757 77.9035 293.484 76.8112C293.211 75.7189 293.074 74.2683 293.074 72.4592V55.256H288.364V54.232H293.074V46.7568C294.132 46.7227 295.122 46.6373 296.044 46.5008C296.965 46.3301 297.819 46.0741 298.604 45.7328Z" fill="#7A5C3C"/>
<path d="M94.24 0.00320015C75.2416 0.7008 59.8336 4.8096 48.0544 11.1456L42.1728 20.9792L41.1808 15.3728C39.0784 16.8512 37.1296 18.4096 35.3344 20.0448L32.4 29.0464L31.392 24.016C22.6752 33.7728 18.7776 45.5712 19.76 57.6288H5.0336V67.4304H13.0944L4.4448 75.024L0 91.9936L2.9024 95.1616H38.288L41.1904 91.9936L36.7456 75.024L28.56 67.4304H35.6192V57.6288H22.6432C27.7504 54.9824 32.7104 51.3216 37.6192 47.0912L31.6608 47.4016L31.7152 47.3408L42.4128 42.7872C51.7664 34.0768 61.0624 23.8272 71.008 15.1872L66.1152 14.1504L77.4272 9.936C82.7808 5.8528 88.3488 2.3904 94.24 0V0.00320015Z" fill="#7A5C3C"/>
</g>
<defs>
<clipPath id="clip0_8_34">
<rect width="302.4" height="96" fill="white"/>
</clipPath>
</defs>
</svg>
