<svg width="252" height="100" viewBox="0 0 252 100" fill="none" xmlns="http://www.w3.org/2000/svg">
<path d="M90.842 89.962L91.45 90.19C91.222 91.4567 90.8927 92.546 90.462 93.458C90.0567 94.37 89.5373 95.0793 88.904 95.586C88.3973 96.0167 87.726 96.384 86.89 96.688C86.054 96.992 85.066 97.144 83.926 97.144C82.558 97.144 81.2153 96.9287 79.898 96.498C78.606 96.0673 77.276 95.5353 75.908 94.902C74.5653 94.2687 73.1213 93.6733 71.576 93.116C71.3987 93.0653 71.2213 93.0147 71.044 92.964C70.892 92.9133 70.7527 92.8753 70.626 92.85C70.1447 93.078 69.6253 93.2553 69.068 93.382C68.5107 93.5087 67.9787 93.572 67.472 93.572C66.9653 93.572 66.5473 93.496 66.218 93.344C65.8887 93.192 65.724 92.964 65.724 92.66C65.724 92.0267 66.408 91.71 67.776 91.71C68.6627 91.71 69.6127 91.862 70.626 92.166C71.5633 91.9127 72.3613 91.6213 73.02 91.292C73.704 90.988 74.4007 90.6967 75.11 90.418C75.8447 90.1393 76.706 89.962 77.694 89.886L77.732 90.494C76.972 90.57 76.3007 90.7093 75.718 90.912C75.1353 91.14 74.5527 91.3807 73.97 91.634C73.4127 91.8873 72.7413 92.128 71.956 92.356C73.6027 92.5333 75.186 92.7107 76.706 92.888C78.2513 93.0653 79.6827 93.192 81 93.268C82.3427 93.3693 83.546 93.382 84.61 93.306C86.2567 93.1793 87.5613 92.8627 88.524 92.356C89.4867 91.8493 90.2593 91.0513 90.842 89.962ZM76.744 62.564C79.328 62.564 81.5953 63.1087 83.546 64.198C85.4967 65.2873 87.004 66.858 88.068 68.91C89.1573 70.9367 89.702 73.4067 89.702 76.32C89.702 79.1573 89.1447 81.64 88.03 83.768C86.9407 85.896 85.408 87.5553 83.432 88.746C81.4813 89.9367 79.2393 90.532 76.706 90.532C74.122 90.532 71.8547 89.9873 69.904 88.898C67.9533 87.8087 66.4333 86.238 65.344 84.186C64.28 82.134 63.748 79.664 63.748 76.776C63.748 73.9387 64.3053 71.456 65.42 69.328C66.5347 67.2 68.0673 65.5407 70.018 64.35C71.9687 63.1593 74.2107 62.564 76.744 62.564ZM76.592 63.248C75.0973 63.248 73.7927 63.818 72.678 64.958C71.5887 66.098 70.74 67.6687 70.132 69.67C69.524 71.6713 69.22 73.9893 69.22 76.624C69.22 79.3093 69.562 81.6527 70.246 83.654C70.93 85.63 71.8547 87.1627 73.02 88.252C74.1853 89.316 75.4647 89.848 76.858 89.848C78.3527 89.848 79.6447 89.278 80.734 88.138C81.8487 86.998 82.71 85.4273 83.318 83.426C83.926 81.3993 84.23 79.0813 84.23 76.472C84.23 73.7613 83.888 71.418 83.204 69.442C82.52 67.466 81.5953 65.946 80.43 64.882C79.29 63.7927 78.0107 63.248 76.592 63.248ZM110.807 69.936V85.896C110.807 87.036 110.997 87.8847 111.377 88.442C111.757 88.974 112.428 89.24 113.391 89.24V90.038C112.606 89.962 111.82 89.924 111.035 89.924C110.098 89.924 109.198 89.962 108.337 90.038C107.501 90.114 106.728 90.2533 106.019 90.456V86.656C105.386 88.0493 104.512 89.05 103.397 89.658C102.308 90.2407 101.13 90.532 99.8628 90.532C98.8748 90.532 98.0388 90.3927 97.3548 90.114C96.6962 89.8607 96.1642 89.506 95.7588 89.05C95.3282 88.5687 95.0242 87.9353 94.8468 87.15C94.6695 86.3647 94.5808 85.3513 94.5808 84.11V74.496C94.5808 73.356 94.3908 72.52 94.0108 71.988C93.6562 71.4307 92.9848 71.152 91.9968 71.152V70.354C92.8075 70.43 93.5928 70.468 94.3528 70.468C95.2902 70.468 96.1768 70.43 97.0128 70.354C97.8742 70.2527 98.6595 70.1133 99.3688 69.936V85.44C99.3688 86.124 99.4195 86.732 99.5208 87.264C99.6475 87.796 99.8882 88.2267 100.243 88.556C100.598 88.86 101.13 89.012 101.839 89.012C102.624 89.012 103.334 88.784 103.967 88.328C104.6 87.872 105.094 87.2513 105.449 86.466C105.829 85.6807 106.019 84.794 106.019 83.806V74.496C106.019 73.356 105.829 72.52 105.449 71.988C105.094 71.4307 104.423 71.152 103.435 71.152V70.354C104.246 70.43 105.031 70.468 105.791 70.468C106.728 70.468 107.615 70.43 108.451 70.354C109.312 70.2527 110.098 70.1133 110.807 69.936ZM119.839 60.664C120.751 60.664 121.498 60.9173 122.081 61.424C122.663 61.9307 122.955 62.602 122.955 63.438C122.955 64.274 122.663 64.9453 122.081 65.452C121.498 65.9587 120.751 66.212 119.839 66.212C118.927 66.212 118.179 65.9587 117.597 65.452C117.014 64.9453 116.723 64.274 116.723 63.438C116.723 62.602 117.014 61.9307 117.597 61.424C118.179 60.9173 118.927 60.664 119.839 60.664ZM122.499 69.936V86.466C122.499 87.53 122.689 88.252 123.069 88.632C123.474 89.012 124.145 89.202 125.083 89.202V90C124.627 89.9747 123.93 89.9493 122.993 89.924C122.055 89.8733 121.105 89.848 120.143 89.848C119.205 89.848 118.255 89.8733 117.293 89.924C116.33 89.9493 115.608 89.9747 115.127 90V89.202C116.064 89.202 116.723 89.012 117.103 88.632C117.508 88.252 117.711 87.53 117.711 86.466V74.534C117.711 73.3687 117.521 72.52 117.141 71.988C116.786 71.4307 116.115 71.152 115.127 71.152V70.354C115.937 70.43 116.723 70.468 117.483 70.468C118.42 70.468 119.307 70.43 120.143 70.354C121.004 70.2527 121.789 70.1133 122.499 69.936ZM133.96 60.246V86.466C133.96 87.53 134.15 88.252 134.53 88.632C134.935 89.012 135.607 89.202 136.544 89.202V90C136.088 89.9747 135.391 89.9493 134.454 89.924C133.542 89.8733 132.605 89.848 131.642 89.848C130.705 89.848 129.742 89.8733 128.754 89.924C127.791 89.9493 127.069 89.9747 126.588 90V89.202C127.525 89.202 128.184 89.012 128.564 88.632C128.969 88.252 129.172 87.53 129.172 86.466V64.806C129.172 63.666 128.995 62.83 128.64 62.298C128.285 61.7407 127.601 61.462 126.588 61.462V60.664C127.399 60.74 128.184 60.778 128.944 60.778C129.907 60.778 130.806 60.74 131.642 60.664C132.478 60.5627 133.251 60.4233 133.96 60.246ZM145.612 60.246V86.466C145.612 87.53 145.802 88.252 146.182 88.632C146.588 89.012 147.259 89.202 148.196 89.202V90C147.74 89.9747 147.044 89.9493 146.106 89.924C145.194 89.8733 144.257 89.848 143.294 89.848C142.357 89.848 141.394 89.8733 140.406 89.924C139.444 89.9493 138.722 89.9747 138.24 90V89.202C139.178 89.202 139.836 89.012 140.216 88.632C140.622 88.252 140.824 87.53 140.824 86.466V64.806C140.824 63.666 140.647 62.83 140.292 62.298C139.938 61.7407 139.254 61.462 138.24 61.462V60.664C139.051 60.74 139.836 60.778 140.596 60.778C141.559 60.778 142.458 60.74 143.294 60.664C144.13 60.5627 144.903 60.4233 145.612 60.246ZM177.826 89.962L178.434 90.19C178.206 91.4567 177.877 92.546 177.446 93.458C177.041 94.37 176.522 95.0793 175.888 95.586C175.382 96.0167 174.71 96.384 173.874 96.688C173.038 96.992 172.05 97.144 170.91 97.144C169.542 97.144 168.2 96.9287 166.882 96.498C165.59 96.0673 164.26 95.5353 162.892 94.902C161.55 94.2687 160.106 93.6733 158.56 93.116C158.383 93.0653 158.206 93.0147 158.028 92.964C157.876 92.9133 157.737 92.8753 157.61 92.85C157.129 93.078 156.61 93.2553 156.052 93.382C155.495 93.5087 154.963 93.572 154.456 93.572C153.95 93.572 153.532 93.496 153.202 93.344C152.873 93.192 152.708 92.964 152.708 92.66C152.708 92.0267 153.392 91.71 154.76 91.71C155.647 91.71 156.597 91.862 157.61 92.166C158.548 91.9127 159.346 91.6213 160.004 91.292C160.688 90.988 161.385 90.6967 162.094 90.418C162.829 90.1393 163.69 89.962 164.678 89.886L164.716 90.494C163.956 90.57 163.285 90.7093 162.702 90.912C162.12 91.14 161.537 91.3807 160.954 91.634C160.397 91.8873 159.726 92.128 158.94 92.356C160.587 92.5333 162.17 92.7107 163.69 92.888C165.236 93.0653 166.667 93.192 167.984 93.268C169.327 93.3693 170.53 93.382 171.594 93.306C173.241 93.1793 174.546 92.8627 175.508 92.356C176.471 91.8493 177.244 91.0513 177.826 89.962ZM163.728 62.564C166.312 62.564 168.58 63.1087 170.53 64.198C172.481 65.2873 173.988 66.858 175.052 68.91C176.142 70.9367 176.686 73.4067 176.686 76.32C176.686 79.1573 176.129 81.64 175.014 83.768C173.925 85.896 172.392 87.5553 170.416 88.746C168.466 89.9367 166.224 90.532 163.69 90.532C161.106 90.532 158.839 89.9873 156.888 88.898C154.938 87.8087 153.418 86.238 152.328 84.186C151.264 82.134 150.732 79.664 150.732 76.776C150.732 73.9387 151.29 71.456 152.404 69.328C153.519 67.2 155.052 65.5407 157.002 64.35C158.953 63.1593 161.195 62.564 163.728 62.564ZM163.576 63.248C162.082 63.248 160.777 63.818 159.662 64.958C158.573 66.098 157.724 67.6687 157.116 69.67C156.508 71.6713 156.204 73.9893 156.204 76.624C156.204 79.3093 156.546 81.6527 157.23 83.654C157.914 85.63 158.839 87.1627 160.004 88.252C161.17 89.316 162.449 89.848 163.842 89.848C165.337 89.848 166.629 89.278 167.718 88.138C168.833 86.998 169.694 85.4273 170.302 83.426C170.91 81.3993 171.214 79.0813 171.214 76.472C171.214 73.7613 170.872 71.418 170.188 69.442C169.504 67.466 168.58 65.946 167.414 64.882C166.274 63.7927 164.995 63.248 163.576 63.248ZM197.791 69.936V85.896C197.791 87.036 197.981 87.8847 198.361 88.442C198.741 88.974 199.413 89.24 200.375 89.24V90.038C199.59 89.962 198.805 89.924 198.019 89.924C197.082 89.924 196.183 89.962 195.321 90.038C194.485 90.114 193.713 90.2533 193.003 90.456V86.656C192.37 88.0493 191.496 89.05 190.381 89.658C189.292 90.2407 188.114 90.532 186.847 90.532C185.859 90.532 185.023 90.3927 184.339 90.114C183.681 89.8607 183.149 89.506 182.743 89.05C182.313 88.5687 182.009 87.9353 181.831 87.15C181.654 86.3647 181.565 85.3513 181.565 84.11V74.496C181.565 73.356 181.375 72.52 180.995 71.988C180.641 71.4307 179.969 71.152 178.981 71.152V70.354C179.792 70.43 180.577 70.468 181.337 70.468C182.275 70.468 183.161 70.43 183.997 70.354C184.859 70.2527 185.644 70.1133 186.353 69.936V85.44C186.353 86.124 186.404 86.732 186.505 87.264C186.632 87.796 186.873 88.2267 187.227 88.556C187.582 88.86 188.114 89.012 188.823 89.012C189.609 89.012 190.318 88.784 190.951 88.328C191.585 87.872 192.079 87.2513 192.433 86.466C192.813 85.6807 193.003 84.794 193.003 83.806V74.496C193.003 73.356 192.813 72.52 192.433 71.988C192.079 71.4307 191.407 71.152 190.419 71.152V70.354C191.23 70.43 192.015 70.468 192.775 70.468C193.713 70.468 194.599 70.43 195.435 70.354C196.297 70.2527 197.082 70.1133 197.791 69.936ZM211.687 69.822C213.916 69.822 215.664 70.4933 216.931 71.836C218.198 73.1787 218.831 75.3193 218.831 78.258H206.025L205.987 77.536H214.423C214.474 76.2947 214.398 75.1547 214.195 74.116C213.992 73.052 213.663 72.2033 213.207 71.57C212.776 70.9367 212.206 70.62 211.497 70.62C210.534 70.62 209.698 71.19 208.989 72.33C208.28 73.4447 207.836 75.2813 207.659 77.84L207.811 78.068C207.76 78.3973 207.722 78.752 207.697 79.132C207.697 79.512 207.697 79.892 207.697 80.272C207.697 82.02 207.95 83.464 208.457 84.604C208.964 85.744 209.622 86.58 210.433 87.112C211.244 87.644 212.08 87.91 212.941 87.91C213.524 87.91 214.119 87.8213 214.727 87.644C215.335 87.4667 215.93 87.1373 216.513 86.656C217.096 86.1747 217.628 85.4907 218.109 84.604L218.831 84.908C218.552 85.7947 218.084 86.6813 217.425 87.568C216.792 88.4293 215.968 89.1387 214.955 89.696C213.942 90.2533 212.751 90.532 211.383 90.532C209.66 90.532 208.14 90.152 206.823 89.392C205.506 88.632 204.48 87.5047 203.745 86.01C203.01 84.49 202.643 82.6407 202.643 80.462C202.643 78.1567 203.023 76.2187 203.783 74.648C204.568 73.0773 205.645 71.8867 207.013 71.076C208.381 70.24 209.939 69.822 211.687 69.822ZM228.555 69.822C229.619 69.822 230.531 69.974 231.291 70.278C232.051 70.582 232.608 70.848 232.963 71.076C233.824 71.7093 234.343 71.304 234.521 69.86H235.357C235.306 70.5947 235.268 71.4687 235.243 72.482C235.217 73.47 235.205 74.8 235.205 76.472H234.369C234.242 75.5347 234.001 74.6227 233.647 73.736C233.292 72.8493 232.773 72.1147 232.089 71.532C231.405 70.924 230.505 70.62 229.391 70.62C228.605 70.62 227.947 70.848 227.415 71.304C226.908 71.76 226.655 72.406 226.655 73.242C226.655 74.002 226.883 74.6733 227.339 75.256C227.795 75.8133 228.377 76.3453 229.087 76.852C229.821 77.3333 230.581 77.8653 231.367 78.448C232.279 79.056 233.089 79.6767 233.799 80.31C234.508 80.918 235.078 81.602 235.509 82.362C235.939 83.0967 236.155 83.9707 236.155 84.984C236.155 86.1493 235.825 87.15 235.167 87.986C234.533 88.7967 233.685 89.43 232.621 89.886C231.582 90.3167 230.429 90.532 229.163 90.532C228.479 90.532 227.858 90.4687 227.301 90.342C226.743 90.2153 226.249 90.0507 225.819 89.848C225.489 89.6707 225.185 89.506 224.907 89.354C224.653 89.202 224.387 89.0753 224.109 88.974C223.855 88.8473 223.627 88.898 223.425 89.126C223.247 89.354 223.108 89.734 223.007 90.266H222.171C222.221 89.4553 222.259 88.4673 222.285 87.302C222.31 86.1367 222.323 84.5913 222.323 82.666H223.159C223.336 84.0593 223.602 85.288 223.957 86.352C224.337 87.3907 224.881 88.214 225.591 88.822C226.3 89.4047 227.212 89.696 228.327 89.696C228.808 89.696 229.264 89.5947 229.695 89.392C230.151 89.1893 230.518 88.8727 230.797 88.442C231.101 88.0113 231.253 87.4287 231.253 86.694C231.253 85.5793 230.873 84.6547 230.113 83.92C229.353 83.1853 228.403 82.4 227.263 81.564C226.401 80.9307 225.591 80.31 224.831 79.702C224.096 79.094 223.488 78.41 223.007 77.65C222.551 76.89 222.323 75.9907 222.323 74.952C222.323 73.812 222.614 72.8747 223.197 72.14C223.779 71.38 224.539 70.81 225.477 70.43C226.439 70.0247 227.465 69.822 228.555 69.822ZM245.846 64.122V70.392H250.71V71.152H245.846V86.276C245.846 87.188 246.01 87.834 246.34 88.214C246.669 88.594 247.138 88.784 247.746 88.784C248.328 88.784 248.86 88.5687 249.342 88.138C249.823 87.682 250.254 86.9347 250.634 85.896L251.318 86.2C250.938 87.4413 250.342 88.48 249.532 89.316C248.746 90.1267 247.632 90.532 246.188 90.532C245.326 90.532 244.592 90.418 243.984 90.19C243.401 89.9873 242.894 89.6833 242.464 89.278C241.906 88.6953 241.526 87.9987 241.324 87.188C241.146 86.3773 241.058 85.3007 241.058 83.958V71.152H237.714V70.392H241.058V65.11C241.97 65.0847 242.818 64.996 243.604 64.844C244.389 64.692 245.136 64.4513 245.846 64.122Z" fill="white"/>
<path d="M100 0.00336286C79.8404 0.736432 63.4907 5.05414 50.9915 11.7123L44.7504 22.0459L43.6978 16.1544C41.4669 17.708 39.399 19.3456 37.4941 21.064L34.3803 30.5232L33.3107 25.2371C24.0611 35.4899 19.9253 47.8882 20.9677 60.5589H5.34126V70.8588H13.8947L4.71647 78.8385L0 96.6709L3.0798 100H40.6282L43.708 96.6709L38.9915 78.8385L30.3056 70.8588H37.7963V60.5589H24.0272C29.4465 57.7779 34.7097 53.931 39.9185 49.4855L33.5959 49.8117L33.6536 49.7478L45.0051 44.9627C54.9304 35.8094 64.7946 25.0387 75.348 15.9594L70.1562 14.8699L82.1596 10.4412C87.8404 6.15038 93.7487 2.51194 100 0V0.00336286Z" fill="white"/>
</svg>
