<svg width="164" height="150" viewBox="0 0 164 150" fill="none" xmlns="http://www.w3.org/2000/svg">
<g clip-path="url(#clip0_34_750)">
<path d="M106.038 0.779328C102.564 0.134077 98.8897 -0.108939 95.5629 1.09777C92.236 2.30447 89.3576 5.24162 89.1229 8.76536C88.9008 11.8492 90.6313 15.0042 89.6592 17.9413C88.6872 20.8785 85.3813 22.3408 82.3478 22.2318C79.3143 22.1229 76.4819 20.7696 73.7249 19.5335C65.1187 15.6788 55.9386 12.6746 46.4902 12.6159C37.0419 12.5573 27.3129 15.7626 20.9651 22.7346C14.6173 29.7067 12.4595 40.7514 17.169 48.9008C19.4274 52.8226 23.0601 55.9274 24.7109 60.1341C26.7179 65.2165 25.4693 71.0992 22.859 75.8966C20.2486 80.6941 16.419 84.683 12.8659 88.8268C7.54052 95.0321 2.65086 102 1.07544 110.024C-0.499982 118.047 1.96371 127.32 8.7975 131.811C13.4064 134.853 19.352 135.323 24.7989 134.367C30.2458 133.412 35.3701 131.145 40.4944 129.05C50.1941 125.091 60.5391 121.605 70.9469 122.765C84.7738 124.337 96.8115 133.932 110.689 134.849C121.582 135.574 132.304 130.705 140.663 123.658C147.234 118.114 152.583 111.268 156.374 103.552C160.164 95.8361 162.314 87.418 162.686 78.8293C163.059 70.2407 161.646 61.6681 158.538 53.653C155.43 45.6379 150.693 38.3544 144.627 32.2626C144.627 32.2626 122.458 3.82542 106.038 0.779328Z" fill="#E1C5AC"/>
<g opacity="0.9">
<path d="M106.038 0.779328C102.564 0.134077 98.8897 -0.108939 95.5629 1.09777C92.236 2.30447 89.3576 5.24162 89.1229 8.76536C88.9008 11.8492 90.6313 15.0042 89.6592 17.9413C88.6872 20.8785 85.3813 22.3408 82.3478 22.2318C79.3143 22.1229 76.4819 20.7696 73.7249 19.5335C65.1187 15.6788 55.9386 12.6746 46.4902 12.6159C37.0419 12.5573 27.3129 15.7626 20.9651 22.7346C14.6173 29.7067 12.4595 40.7514 17.169 48.9008C19.4274 52.8226 23.0601 55.9274 24.7109 60.1341C26.7179 65.2165 25.4693 71.0992 22.859 75.8966C20.2486 80.6941 16.419 84.683 12.8659 88.8268C7.54052 95.0321 2.65086 102 1.07544 110.024C-0.499982 118.047 1.96371 127.32 8.7975 131.811C13.4064 134.853 19.352 135.323 24.7989 134.367C30.2458 133.412 35.3701 131.145 40.4944 129.05C50.1941 125.091 60.5391 121.605 70.9469 122.765C84.7738 124.337 96.8115 133.932 110.689 134.849C121.582 135.574 132.304 130.705 140.663 123.658C147.234 118.114 152.583 111.268 156.374 103.552C160.164 95.8361 162.314 87.418 162.686 78.8293C163.059 70.2407 161.646 61.6681 158.538 53.653C155.43 45.6379 150.693 38.3544 144.627 32.2626C144.627 32.2626 122.458 3.82542 106.038 0.779328Z" fill="white"/>
</g>
<path d="M82.419 149.585C127.286 149.585 163.658 147.462 163.658 144.842C163.658 142.223 127.286 140.099 82.419 140.099C37.552 140.099 1.18018 142.223 1.18018 144.842C1.18018 147.462 37.552 149.585 82.419 149.585Z" fill="#F5F5F5"/>
<path d="M154.587 85.7305C154.008 67.4162 145.909 45.4819 135.489 37.4749C101.55 11.4176 76.5405 38.271 72.0614 45.4609C67.5824 52.6509 65.2025 61.4372 63.405 70.1816C61.729 78.3687 60.472 86.7654 60.669 95.1788C60.8659 103.592 62.5754 112.077 66.4092 119.015C68.3198 122.464 71.0181 125.677 74.4329 126.105C79.2011 126.712 83.2067 121.785 86.0726 117.029C88.9385 112.274 91.9385 106.823 96.6564 105.528C100.696 104.422 104.927 106.915 107.621 110.707C110.316 114.499 111.719 119.388 112.817 124.236C113.655 127.961 114.351 131.778 115.75 135.226C117.149 138.675 119.328 141.838 122.29 143.166C125.119 144.423 128.358 143.899 131.123 142.328C133.888 140.757 136.235 138.289 138.376 135.624C148.955 122.501 155.156 104.053 154.587 85.7305ZM121.775 120.159C120.585 120.123 119.432 119.735 118.462 119.043C117.493 118.352 116.75 117.388 116.328 116.274C115.906 115.161 115.824 113.947 116.092 112.786C116.359 111.626 116.966 110.571 117.833 109.755C118.701 108.939 119.791 108.399 120.965 108.203C122.14 108.006 123.346 108.163 124.432 108.652C125.518 109.141 126.434 109.942 127.065 110.952C127.696 111.962 128.013 113.136 127.976 114.327C127.952 115.117 127.773 115.895 127.448 116.616C127.124 117.337 126.66 117.987 126.084 118.528C125.508 119.07 124.831 119.493 124.092 119.773C123.353 120.052 122.565 120.184 121.775 120.159Z" fill="#E1C5AC"/>
<path d="M153.258 84.8715C152.68 66.5573 144.585 44.6229 134.161 36.6159C100.243 10.5587 75.2123 37.412 70.7374 44.602C66.2626 51.7919 63.8743 60.5782 62.0768 69.3226C60.4008 77.5098 59.1438 85.9064 59.3408 94.3157C59.5377 102.725 61.2472 111.214 65.081 118.152C66.9916 121.605 69.6899 124.818 73.1047 125.246C77.8729 125.849 81.8827 120.926 84.7444 116.17C87.6061 111.415 90.6313 105.964 95.3282 104.669C99.3673 103.563 103.599 106.056 106.293 109.844C108.987 113.631 110.391 118.529 111.489 123.377C112.327 127.102 113.022 130.919 114.422 134.367C115.821 137.816 118 140.979 120.962 142.307C123.79 143.564 127.029 143.041 129.795 141.469C132.56 139.898 134.906 137.43 137.047 134.765C147.627 121.642 153.828 103.19 153.258 84.8715ZM120.447 119.3C119.257 119.264 118.104 118.876 117.134 118.184C116.164 117.493 115.422 116.529 115 115.415C114.578 114.302 114.495 113.088 114.763 111.928C115.031 110.767 115.637 109.712 116.505 108.896C117.372 108.08 118.462 107.54 119.637 107.344C120.812 107.147 122.018 107.304 123.104 107.793C124.19 108.282 125.106 109.083 125.737 110.093C126.368 111.103 126.685 112.278 126.648 113.468C126.624 114.258 126.445 115.036 126.12 115.757C125.796 116.478 125.332 117.128 124.756 117.669C124.18 118.211 123.503 118.634 122.764 118.914C122.024 119.193 121.237 119.325 120.447 119.3Z" fill="#E1C5AC"/>
<g opacity="0.5">
<path d="M153.258 84.8715C152.68 66.5573 144.585 44.6229 134.161 36.6159C100.243 10.5587 75.2123 37.412 70.7374 44.602C66.2626 51.7919 63.8743 60.5782 62.0768 69.3226C60.4008 77.5098 59.1438 85.9064 59.3408 94.3157C59.5377 102.725 61.2472 111.214 65.081 118.152C66.9916 121.605 69.6899 124.818 73.1047 125.246C77.8729 125.849 81.8827 120.926 84.7444 116.17C87.6061 111.415 90.6313 105.964 95.3282 104.669C99.3673 103.563 103.599 106.056 106.293 109.844C108.987 113.631 110.391 118.529 111.489 123.377C112.327 127.102 113.022 130.919 114.422 134.367C115.821 137.816 118 140.979 120.962 142.307C123.79 143.564 127.029 143.041 129.795 141.469C132.56 139.898 134.906 137.43 137.047 134.765C147.627 121.642 153.828 103.19 153.258 84.8715ZM120.447 119.3C119.257 119.264 118.104 118.876 117.134 118.184C116.164 117.493 115.422 116.529 115 115.415C114.578 114.302 114.495 113.088 114.763 111.928C115.031 110.767 115.637 109.712 116.505 108.896C117.372 108.08 118.462 107.54 119.637 107.344C120.812 107.147 122.018 107.304 123.104 107.793C124.19 108.282 125.106 109.083 125.737 110.093C126.368 111.103 126.685 112.278 126.648 113.468C126.624 114.258 126.445 115.036 126.12 115.757C125.796 116.478 125.332 117.128 124.756 117.669C124.18 118.211 123.503 118.634 122.764 118.914C122.024 119.193 121.237 119.325 120.447 119.3Z" fill="white"/>
</g>
<path d="M108.547 78.7123C107.622 80.0548 106.915 81.5355 106.452 83.0992C106.14 83.9166 105.997 84.7891 106.034 85.6634C106.054 86.1001 106.189 86.5237 106.425 86.8915C106.661 87.2594 106.99 87.5584 107.378 87.7584C107.682 87.8471 107.973 87.9723 108.246 88.1313C108.887 88.6215 108.665 89.6523 109.063 90.3604C109.515 91.1984 110.697 91.3408 111.577 90.9721C112.457 90.6034 113.077 89.8576 113.735 89.183C114.199 88.6619 114.747 88.2215 115.356 87.8799C115.804 87.6495 116.295 87.507 116.76 87.3101C118.876 86.4051 120.33 84.3185 120.925 82.0978C121.142 81.445 121.177 80.7452 121.025 80.074C120.846 79.5805 120.546 79.1395 120.153 78.7912C119.76 78.4428 119.287 78.1983 118.775 78.0796C117.75 77.8573 116.694 77.8105 115.654 77.9414C115.305 77.3728 114.897 76.842 114.439 76.3576C113.893 75.9375 113.209 75.7399 112.524 75.8045C111.003 75.9763 109.377 77.5894 108.547 78.7123Z" fill="#263238"/>
<path d="M103.038 69.9721C102.112 71.3146 101.405 72.7952 100.943 74.3589C100.63 75.1763 100.488 76.0488 100.524 76.9232C100.547 77.3591 100.683 77.7815 100.919 78.1488C101.155 78.5162 101.482 78.8158 101.869 79.0182C102.172 79.1068 102.463 79.2321 102.736 79.3911C103.377 79.8813 103.155 80.912 103.553 81.6201C104.006 82.4581 105.187 82.6006 106.067 82.2318C106.947 81.8631 107.571 81.1173 108.225 80.4427C108.691 79.9235 109.239 79.4835 109.846 79.1397C110.299 78.9092 110.785 78.7668 111.25 78.5698C113.37 77.6648 114.82 75.5782 115.415 73.3534C115.632 72.7019 115.666 72.0036 115.515 71.3338C115.23 70.3282 114.258 69.6243 113.265 69.3394C112.242 69.1151 111.187 69.0683 110.148 69.2011C109.795 68.6337 109.388 68.1019 108.933 67.6131C108.385 67.1947 107.7 66.9986 107.014 67.0642C105.497 67.2444 103.867 68.8575 103.038 69.9721Z" fill="white"/>
<path opacity="0.6" d="M144.682 103.911C146.223 104.015 147.774 103.911 149.316 103.973C149.515 103.965 149.711 104.024 149.873 104.141C150.208 104.451 149.894 105.013 149.513 105.268C147.996 106.278 145.968 105.536 144.313 104.778C144.149 105.197 144.547 105.616 144.866 105.972C145.184 106.328 145.423 106.911 145.046 107.183C144.786 107.367 144.426 107.237 144.141 107.095C142.081 106.079 140.17 104.786 138.459 103.253C139.264 101.904 143.311 103.814 144.682 103.911Z" fill="white"/>
<path d="M146.571 95.1117C146.361 95.1338 146.159 95.2 145.976 95.306C145.794 95.412 145.636 95.5554 145.513 95.7267C145.39 95.8981 145.304 96.0935 145.262 96.3002C145.22 96.5068 145.222 96.7201 145.268 96.926C145.334 97.1268 145.439 97.3125 145.577 97.4726C145.715 97.6326 145.883 97.7637 146.072 97.8584C146.261 97.9531 146.467 98.0094 146.678 98.0241C146.888 98.0388 147.1 98.0116 147.3 97.9441C147.654 97.7947 147.95 97.5337 148.142 97.201C148.334 96.8682 148.412 96.4818 148.365 96.1005C148.302 95.7211 148.134 95.3668 147.88 95.0779C147.626 94.7891 147.296 94.5773 146.927 94.4665C146.638 94.3785 146.177 94.6634 146.42 94.8436L146.571 95.1117Z" fill="#E1C5AC"/>
<path d="M143.353 97.7137C143.285 97.7231 143.22 97.7465 143.161 97.7823C143.103 97.8181 143.052 97.8656 143.013 97.9219C142.974 97.9781 142.946 98.0419 142.933 98.1092C142.919 98.1765 142.92 98.2458 142.934 98.3129C142.979 98.4459 143.075 98.5558 143.201 98.6186C143.326 98.6813 143.471 98.692 143.605 98.6481C143.722 98.5995 143.82 98.5136 143.883 98.4039C143.947 98.2941 143.973 98.1664 143.957 98.0405C143.936 97.9152 143.881 97.7981 143.797 97.7025C143.714 97.607 143.605 97.5368 143.483 97.5001C143.387 97.4707 143.236 97.5671 143.316 97.6257L143.353 97.7137Z" fill="#E1C5AC"/>
<path d="M135.673 100.781C135.523 100.797 135.378 100.845 135.248 100.921C135.118 100.997 135.005 101.1 134.917 101.222C134.829 101.345 134.768 101.484 134.737 101.632C134.706 101.78 134.707 101.932 134.739 102.08C134.786 102.223 134.861 102.356 134.96 102.47C135.059 102.585 135.179 102.678 135.314 102.746C135.449 102.814 135.597 102.854 135.747 102.865C135.898 102.876 136.049 102.857 136.193 102.809C136.446 102.702 136.657 102.515 136.794 102.277C136.931 102.038 136.986 101.761 136.951 101.489C136.906 101.218 136.787 100.965 136.606 100.759C136.426 100.552 136.191 100.4 135.929 100.32C135.719 100.257 135.388 100.462 135.564 100.592L135.673 100.781Z" fill="#263238"/>
<path d="M134.793 105.528C133.81 105.914 132.922 106.511 132.192 107.276C131.463 108.041 130.909 108.956 130.57 109.957C130.248 110.822 130.164 111.759 130.327 112.668C130.423 113.116 130.603 113.547 130.658 114.004C130.913 116.221 128.211 117.775 128.022 120.013C127.98 120.524 128.094 121.094 128.714 121.299C128.964 121.371 129.231 121.364 129.478 121.277C129.724 121.191 129.937 121.03 130.088 120.817C130.813 119.862 130.507 118.684 130.708 117.595C130.905 116.434 131.349 115.957 132.409 115.441C133.985 115.194 131.353 121.588 131.672 125.862C131.705 126.356 131.11 128.832 131.58 128.992C133.075 129.494 133.356 126.373 133.126 124.324C132.916 122.898 133.057 121.443 133.536 120.084C133.592 119.933 133.705 119.811 133.851 119.744C133.996 119.677 134.163 119.67 134.314 119.726C134.464 119.781 134.586 119.894 134.654 120.04C134.721 120.186 134.727 120.352 134.672 120.503C134.554 120.922 134.395 121.307 134.253 121.689C133.892 122.719 134.001 124.236 135.091 124.446C135.686 122.975 135.468 121.316 135.51 119.728C135.504 118.777 135.702 117.835 136.088 116.966C136.173 116.816 136.302 116.696 136.458 116.622C136.613 116.548 136.788 116.524 136.958 116.552C137.128 116.581 137.285 116.662 137.407 116.783C137.53 116.905 137.612 117.061 137.642 117.23C137.793 118.453 137.806 119.688 137.68 120.913C138.33 121.19 139.054 120.536 139.176 119.841C139.297 119.145 139.038 118.446 138.887 117.746C138.736 117.046 138.728 116.242 139.235 115.751C139.539 115.512 139.884 115.327 140.253 115.207C147.045 112.228 141.497 102.892 134.793 105.528Z" fill="#E1C5AC"/>
<path opacity="0.7" d="M134.793 105.528C133.81 105.914 132.922 106.511 132.192 107.276C131.463 108.041 130.909 108.956 130.57 109.957C130.248 110.822 130.164 111.759 130.327 112.668C130.423 113.116 130.603 113.547 130.658 114.004C130.913 116.221 128.211 117.775 128.022 120.013C127.98 120.524 128.094 121.094 128.714 121.299C128.964 121.371 129.231 121.364 129.478 121.277C129.724 121.191 129.937 121.03 130.088 120.817C130.813 119.862 130.507 118.684 130.708 117.595C130.905 116.434 131.349 115.957 132.409 115.441C133.985 115.194 131.353 121.588 131.672 125.862C131.705 126.356 131.11 128.832 131.58 128.992C133.075 129.494 133.356 126.373 133.126 124.324C132.916 122.898 133.057 121.443 133.536 120.084C133.592 119.933 133.705 119.811 133.851 119.744C133.996 119.677 134.163 119.67 134.314 119.726C134.464 119.781 134.586 119.894 134.654 120.04C134.721 120.186 134.727 120.352 134.672 120.503C134.554 120.922 134.395 121.307 134.253 121.689C133.892 122.719 134.001 124.236 135.091 124.446C135.686 122.975 135.468 121.316 135.51 119.728C135.504 118.777 135.702 117.835 136.088 116.966C136.173 116.816 136.302 116.696 136.458 116.622C136.613 116.548 136.788 116.524 136.958 116.552C137.128 116.581 137.285 116.662 137.407 116.783C137.53 116.905 137.612 117.061 137.642 117.23C137.793 118.453 137.806 119.688 137.68 120.913C138.33 121.19 139.054 120.536 139.176 119.841C139.297 119.145 139.038 118.446 138.887 117.746C138.736 117.046 138.728 116.242 139.235 115.751C139.539 115.512 139.884 115.327 140.253 115.207C147.045 112.228 141.497 102.892 134.793 105.528Z" fill="#323232"/>
<path d="M128.203 125.497C128.053 125.514 127.909 125.561 127.779 125.637C127.649 125.713 127.537 125.815 127.449 125.938C127.362 126.06 127.3 126.199 127.27 126.346C127.24 126.493 127.24 126.645 127.272 126.792C127.319 126.936 127.393 127.069 127.492 127.184C127.591 127.299 127.711 127.394 127.846 127.461C127.982 127.529 128.129 127.57 128.28 127.58C128.431 127.59 128.583 127.57 128.726 127.521C128.979 127.414 129.19 127.228 129.327 126.991C129.463 126.753 129.519 126.477 129.485 126.205C129.44 125.934 129.32 125.681 129.139 125.474C128.957 125.267 128.721 125.116 128.458 125.036C128.253 124.973 127.922 125.179 128.098 125.309L128.203 125.497Z" fill="#E1C5AC"/>
<path d="M128.203 125.497C128.053 125.514 127.909 125.561 127.779 125.637C127.649 125.713 127.537 125.815 127.449 125.938C127.362 126.06 127.3 126.199 127.27 126.346C127.24 126.493 127.24 126.645 127.272 126.792C127.319 126.936 127.393 127.069 127.492 127.184C127.591 127.299 127.711 127.394 127.846 127.461C127.982 127.529 128.129 127.57 128.28 127.58C128.431 127.59 128.583 127.57 128.726 127.521C128.979 127.414 129.19 127.228 129.327 126.991C129.463 126.753 129.519 126.477 129.485 126.205C129.44 125.934 129.32 125.681 129.139 125.474C128.957 125.267 128.721 125.116 128.458 125.036C128.253 124.973 127.922 125.179 128.098 125.309L128.203 125.497Z" fill="#E1C5AC"/>
<path d="M128.203 125.497C128.053 125.514 127.909 125.561 127.779 125.637C127.649 125.713 127.537 125.815 127.449 125.938C127.362 126.06 127.3 126.199 127.27 126.346C127.24 126.493 127.24 126.645 127.272 126.792C127.319 126.936 127.393 127.069 127.492 127.184C127.591 127.299 127.711 127.394 127.846 127.461C127.982 127.529 128.129 127.57 128.28 127.58C128.431 127.59 128.583 127.57 128.726 127.521C128.979 127.414 129.19 127.228 129.327 126.991C129.463 126.753 129.519 126.477 129.485 126.205C129.44 125.934 129.32 125.681 129.139 125.474C128.957 125.267 128.721 125.116 128.458 125.036C128.253 124.973 127.922 125.179 128.098 125.309L128.203 125.497Z" fill="#E1C5AC"/>
<path opacity="0.7" d="M128.203 125.497C128.053 125.514 127.909 125.561 127.779 125.637C127.649 125.713 127.537 125.815 127.449 125.938C127.362 126.06 127.3 126.199 127.27 126.346C127.24 126.493 127.24 126.645 127.272 126.792C127.319 126.936 127.393 127.069 127.492 127.184C127.591 127.299 127.711 127.394 127.846 127.461C127.982 127.529 128.129 127.57 128.28 127.58C128.431 127.59 128.583 127.57 128.726 127.521C128.979 127.414 129.19 127.228 129.327 126.991C129.463 126.753 129.519 126.477 129.485 126.205C129.44 125.934 129.32 125.681 129.139 125.474C128.957 125.267 128.721 125.116 128.458 125.036C128.253 124.973 127.922 125.179 128.098 125.309L128.203 125.497Z" fill="#323232"/>
<g opacity="0.8">
<path d="M140.165 104.275C139.955 104.297 139.752 104.364 139.57 104.47C139.387 104.575 139.229 104.719 139.105 104.89C138.982 105.061 138.896 105.257 138.853 105.463C138.811 105.67 138.812 105.883 138.858 106.089C138.923 106.291 139.028 106.477 139.165 106.637C139.303 106.798 139.471 106.929 139.66 107.024C139.849 107.12 140.055 107.176 140.266 107.191C140.477 107.206 140.689 107.179 140.89 107.112C141.244 106.962 141.54 106.7 141.732 106.366C141.924 106.033 142.002 105.646 141.954 105.264C141.892 104.885 141.725 104.531 141.471 104.242C141.218 103.953 140.889 103.741 140.521 103.63C140.228 103.542 139.767 103.827 140.01 104.011L140.165 104.275Z" fill="white"/>
<path d="M136.947 106.881C136.879 106.89 136.813 106.913 136.754 106.949C136.695 106.984 136.644 107.032 136.605 107.088C136.566 107.145 136.538 107.209 136.525 107.276C136.512 107.344 136.513 107.413 136.528 107.481C136.549 107.547 136.584 107.609 136.629 107.662C136.674 107.715 136.73 107.758 136.793 107.789C136.855 107.821 136.923 107.839 136.993 107.844C137.062 107.848 137.132 107.839 137.198 107.816C137.315 107.766 137.412 107.68 137.475 107.57C137.539 107.461 137.565 107.334 137.55 107.208C137.529 107.083 137.473 106.966 137.39 106.871C137.306 106.776 137.198 106.705 137.077 106.668C136.98 106.638 136.825 106.735 136.909 106.793L136.947 106.881Z" fill="white"/>
</g>
<path d="M136.532 79.6802C134.99 81.3059 133.599 83.6606 134.58 85.6718C134.835 86.1956 135.242 86.6732 135.275 87.2514C135.321 88.1104 134.517 88.9651 134.881 89.7444H135.589C134.055 91.1017 132.702 92.6508 131.563 94.3534L135.313 91.0014L133.218 94.3157C134.417 92.7649 135.837 91.3984 137.433 90.2598C137.279 91.1811 136.912 92.0536 136.36 92.8073C137.228 93.1634 138.015 92.028 138.954 91.9693C139.401 92.0028 139.84 92.1031 140.257 92.2668C140.712 92.3767 141.188 92.3595 141.634 92.2171C142.079 92.0746 142.477 91.8124 142.784 91.459C143.09 91.1056 143.294 90.6748 143.372 90.2135C143.451 89.7523 143.401 89.2784 143.228 88.8436C145.147 88.6006 146.412 86.6271 146.735 84.7207C146.786 84.0635 146.927 83.4164 147.154 82.7975C147.858 81.3268 148.377 80.5601 147.418 81.2682C147.904 80.4302 146.978 79.9358 146.027 80.514C147.112 79.3953 146.575 78.507 145.566 79.4917C145.113 79.2795 144.626 79.1462 144.128 79.0978C144.154 74.7403 137.777 78.352 136.532 79.6802Z" fill="#E1C5AC"/>
<path d="M130.603 86.0782C130.378 86.0288 130.142 86.0574 129.935 86.1594C129.728 86.2614 129.562 86.4308 129.464 86.6397C129.279 87.0643 129.197 87.5266 129.225 87.9889C129.206 88.1886 129.23 88.3901 129.296 88.5796C129.51 89.0992 130.222 89.1746 130.771 89.0573C131.388 88.9534 131.946 88.6288 132.342 88.1439C132.534 87.8991 132.645 87.601 132.661 87.2905C132.677 86.98 132.596 86.6722 132.43 86.4093C132.339 86.2862 132.223 86.184 132.09 86.1095C131.956 86.035 131.808 85.9899 131.656 85.9772C131.504 85.9645 131.35 85.9845 131.206 86.0359C131.062 86.0873 130.931 86.1689 130.821 86.2752L130.603 86.0782Z" fill="#E1C5AC"/>
<g opacity="0.4">
<path d="M136.532 79.6802C134.99 81.3059 133.599 83.6606 134.58 85.6718C134.835 86.1956 135.242 86.6732 135.275 87.2514C135.321 88.1104 134.517 88.9651 134.881 89.7444H135.589C134.055 91.1017 132.702 92.6508 131.563 94.3534L135.313 91.0014L133.218 94.3157C134.417 92.7649 135.837 91.3984 137.433 90.2598C137.279 91.1811 136.912 92.0536 136.36 92.8073C137.228 93.1634 138.015 92.028 138.954 91.9693C139.401 92.0028 139.84 92.1031 140.257 92.2668C140.712 92.3767 141.188 92.3595 141.634 92.2171C142.079 92.0746 142.477 91.8124 142.784 91.459C143.09 91.1056 143.294 90.6748 143.372 90.2135C143.451 89.7523 143.401 89.2784 143.228 88.8436C145.147 88.6006 146.412 86.6271 146.735 84.7207C146.786 84.0635 146.927 83.4164 147.154 82.7975C147.858 81.3268 148.377 80.5601 147.418 81.2682C147.904 80.4302 146.978 79.9358 146.027 80.514C147.112 79.3953 146.575 78.507 145.566 79.4917C145.113 79.2795 144.626 79.1462 144.128 79.0978C144.154 74.7403 137.777 78.352 136.532 79.6802Z" fill="#323232"/>
<path d="M130.603 86.0782C130.378 86.0288 130.142 86.0574 129.935 86.1594C129.728 86.2614 129.562 86.4308 129.464 86.6397C129.279 87.0643 129.197 87.5266 129.225 87.9889C129.206 88.1886 129.23 88.3901 129.296 88.5796C129.51 89.0992 130.222 89.1746 130.771 89.0573C131.388 88.9534 131.946 88.6288 132.342 88.1439C132.534 87.8991 132.645 87.601 132.661 87.2905C132.677 86.98 132.596 86.6722 132.43 86.4093C132.339 86.2862 132.223 86.184 132.09 86.1095C131.956 86.035 131.808 85.9899 131.656 85.9772C131.504 85.9645 131.35 85.9845 131.206 86.0359C131.062 86.0873 130.931 86.1689 130.821 86.2752L130.603 86.0782Z" fill="#323232"/>
</g>
<path d="M119.944 40.4539C117.908 41.757 116.592 43.9567 115.754 46.2151C115.218 47.648 114.824 49.1983 115.092 50.7025C115.36 52.2067 116.433 53.6564 117.933 53.9623C118.32 54.0022 118.701 54.088 119.068 54.2179C119.487 54.419 119.781 54.8296 120.191 55.0559C120.749 55.3492 121.482 55.2737 121.959 55.6885C122.144 55.8932 122.282 56.1346 122.366 56.3968C122.45 56.659 122.477 56.936 122.446 57.2095C122.378 57.7563 122.438 58.3113 122.621 58.831C122.865 59.3254 123.556 59.6439 123.979 59.2919C124.084 57.9385 124.193 56.5852 124.297 55.2318C124.352 54.5531 124.524 53.7235 125.177 53.5559C125.177 54.3939 125.177 55.2696 125.177 56.1243C125.24 56.1741 125.312 56.2103 125.389 56.2307C125.466 56.251 125.547 56.255 125.626 56.2423C125.705 56.2297 125.78 56.2008 125.847 56.1574C125.914 56.114 125.972 56.057 126.015 55.9902C126.179 55.7186 126.261 55.4062 126.254 55.0894C126.351 53.581 126.371 52.0684 126.325 50.5559L125.567 50.5056L125.621 48.8296C126.122 48.6408 126.661 48.5748 127.193 48.6369C127.131 49.9969 127.309 51.3572 127.721 52.655C128.605 52.324 128.663 51.1131 128.559 50.1704C128.402 48.7123 128.246 47.2528 128.089 45.7919C128.169 46.5084 129.17 45.0545 129.166 45.067C129.451 44.5684 129.166 43.1732 129.045 42.6369C128.802 41.602 128.483 40.7346 127.582 40.1229C125.63 38.7444 121.775 39.2849 119.944 40.4539Z" fill="#E1C5AC"/>
<path d="M111.891 46.3743C111.776 46.3882 111.665 46.4257 111.565 46.4847C111.465 46.5437 111.379 46.6227 111.311 46.7168C111.243 46.8109 111.196 46.9181 111.172 47.0315C111.147 47.1449 111.147 47.2621 111.17 47.3757C111.206 47.4873 111.263 47.5907 111.339 47.6797C111.415 47.7688 111.508 47.8419 111.613 47.8945C111.718 47.9472 111.832 47.9785 111.948 47.9865C112.065 47.9946 112.182 47.9792 112.293 47.9414C112.488 47.8583 112.651 47.7141 112.757 47.5304C112.863 47.3467 112.906 47.1336 112.88 46.9232C112.845 46.7137 112.752 46.5181 112.612 46.3582C112.473 46.1984 112.291 46.0806 112.088 46.0182C111.929 45.9721 111.669 46.1313 111.807 46.2277L111.891 46.3743Z" fill="#E1C5AC"/>
<path d="M117.615 55.7682C117.547 55.776 117.482 55.7978 117.423 55.8323C117.365 55.8668 117.314 55.9132 117.275 55.9685C117.235 56.0237 117.208 56.0867 117.194 56.1532C117.181 56.2197 117.181 56.2884 117.196 56.3547C117.216 56.4201 117.25 56.4806 117.295 56.5328C117.339 56.5849 117.394 56.6277 117.455 56.6585C117.516 56.6893 117.583 56.7076 117.651 56.7123C117.72 56.717 117.788 56.7079 117.853 56.6857C117.968 56.638 118.064 56.5539 118.126 56.4464C118.188 56.3389 118.213 56.2139 118.197 56.0908C118.178 55.967 118.124 55.8512 118.042 55.757C117.96 55.6627 117.852 55.5939 117.732 55.5587C117.64 55.5293 117.489 55.6257 117.568 55.6802L117.615 55.7682Z" fill="#E1C5AC"/>
<g opacity="0.8">
<path d="M119.944 40.4539C117.908 41.757 116.592 43.9567 115.754 46.2151C115.218 47.648 114.824 49.1983 115.092 50.7025C115.36 52.2067 116.433 53.6564 117.933 53.9623C118.32 54.0022 118.701 54.088 119.068 54.2179C119.487 54.419 119.781 54.8296 120.191 55.0559C120.749 55.3492 121.482 55.2737 121.959 55.6885C122.144 55.8932 122.282 56.1346 122.366 56.3968C122.45 56.659 122.477 56.936 122.446 57.2095C122.378 57.7563 122.438 58.3113 122.621 58.831C122.865 59.3254 123.556 59.6439 123.979 59.2919C124.084 57.9385 124.193 56.5852 124.297 55.2318C124.352 54.5531 124.524 53.7235 125.177 53.5559C125.177 54.3939 125.177 55.2696 125.177 56.1243C125.24 56.1741 125.312 56.2103 125.389 56.2307C125.466 56.251 125.547 56.255 125.626 56.2423C125.705 56.2297 125.78 56.2008 125.847 56.1574C125.914 56.114 125.972 56.057 126.015 55.9902C126.179 55.7186 126.261 55.4062 126.254 55.0894C126.351 53.581 126.371 52.0684 126.325 50.5559L125.567 50.5056L125.621 48.8296C126.122 48.6408 126.661 48.5748 127.193 48.6369C127.131 49.9969 127.309 51.3572 127.721 52.655C128.605 52.324 128.663 51.1131 128.559 50.1704C128.402 48.7123 128.246 47.2528 128.089 45.7919C128.169 46.5084 129.17 45.0545 129.166 45.067C129.451 44.5684 129.166 43.1732 129.045 42.6369C128.802 41.602 128.483 40.7346 127.582 40.1229C125.63 38.7444 121.775 39.2849 119.944 40.4539Z" fill="#E1C5AC"/>
<path d="M111.891 46.3743C111.776 46.3882 111.665 46.4257 111.565 46.4847C111.465 46.5437 111.379 46.6227 111.311 46.7168C111.243 46.8109 111.196 46.9181 111.172 47.0315C111.147 47.1449 111.147 47.2621 111.17 47.3757C111.206 47.4873 111.263 47.5907 111.339 47.6797C111.415 47.7688 111.508 47.8419 111.613 47.8945C111.718 47.9472 111.832 47.9785 111.948 47.9865C112.065 47.9946 112.182 47.9792 112.293 47.9414C112.488 47.8583 112.651 47.7141 112.757 47.5304C112.863 47.3467 112.906 47.1336 112.88 46.9232C112.845 46.7137 112.752 46.5181 112.612 46.3582C112.473 46.1984 112.291 46.0806 112.088 46.0182C111.929 45.9721 111.669 46.1313 111.807 46.2277L111.891 46.3743Z" fill="#E1C5AC"/>
<path d="M117.615 55.7682C117.547 55.776 117.482 55.7978 117.423 55.8323C117.365 55.8668 117.314 55.9132 117.275 55.9685C117.235 56.0237 117.208 56.0867 117.194 56.1532C117.181 56.2197 117.181 56.2884 117.196 56.3547C117.216 56.4201 117.25 56.4806 117.295 56.5328C117.339 56.5849 117.394 56.6277 117.455 56.6585C117.516 56.6893 117.583 56.7076 117.651 56.7123C117.72 56.717 117.788 56.7079 117.853 56.6857C117.968 56.638 118.064 56.5539 118.126 56.4464C118.188 56.3389 118.213 56.2139 118.197 56.0908C118.178 55.967 118.124 55.8512 118.042 55.757C117.96 55.6627 117.852 55.5939 117.732 55.5587C117.64 55.5293 117.489 55.6257 117.568 55.6802L117.615 55.7682Z" fill="#E1C5AC"/>
</g>
<g opacity="0.4">
<path opacity="0.5" d="M119.944 40.4539C117.908 41.757 116.592 43.9567 115.754 46.2151C115.218 47.648 114.824 49.1983 115.092 50.7025C115.36 52.2067 116.433 53.6564 117.933 53.9623C118.32 54.0022 118.701 54.088 119.068 54.2179C119.487 54.419 119.781 54.8296 120.191 55.0559C120.749 55.3492 121.482 55.2737 121.959 55.6885C122.144 55.8932 122.282 56.1346 122.366 56.3968C122.45 56.659 122.477 56.936 122.446 57.2095C122.378 57.7563 122.438 58.3113 122.621 58.831C122.865 59.3254 123.556 59.6439 123.979 59.2919C124.084 57.9385 124.193 56.5852 124.297 55.2318C124.352 54.5531 124.524 53.7235 125.177 53.5559C125.177 54.3939 125.177 55.2696 125.177 56.1243C125.24 56.1741 125.312 56.2103 125.389 56.2307C125.466 56.251 125.547 56.255 125.626 56.2423C125.705 56.2297 125.78 56.2008 125.847 56.1574C125.914 56.114 125.972 56.057 126.015 55.9902C126.179 55.7186 126.261 55.4062 126.254 55.0894C126.351 53.581 126.371 52.0684 126.325 50.5559L125.567 50.5056L125.621 48.8296C126.122 48.6408 126.661 48.5748 127.193 48.6369C127.131 49.9969 127.309 51.3572 127.721 52.655C128.605 52.324 128.663 51.1131 128.559 50.1704C128.402 48.7123 128.246 47.2528 128.089 45.7919C128.169 46.5084 129.17 45.0545 129.166 45.067C129.451 44.5684 129.166 43.1732 129.045 42.6369C128.802 41.602 128.483 40.7346 127.582 40.1229C125.63 38.7444 121.775 39.2849 119.944 40.4539Z" fill="white"/>
<g opacity="0.2">
<path d="M111.891 46.3743C111.776 46.3882 111.665 46.4257 111.565 46.4847C111.465 46.5437 111.379 46.6227 111.311 46.7168C111.243 46.8109 111.196 46.9181 111.172 47.0315C111.147 47.1449 111.147 47.2621 111.17 47.3757C111.206 47.4873 111.263 47.5907 111.339 47.6797C111.415 47.7688 111.508 47.8419 111.613 47.8945C111.718 47.9472 111.832 47.9785 111.948 47.9865C112.065 47.9946 112.182 47.9792 112.293 47.9414C112.488 47.8583 112.651 47.7141 112.757 47.5304C112.863 47.3467 112.906 47.1336 112.88 46.9232C112.845 46.7137 112.752 46.5181 112.612 46.3582C112.473 46.1984 112.291 46.0806 112.088 46.0182C111.929 45.9721 111.669 46.1313 111.807 46.2277L111.891 46.3743Z" fill="white"/>
</g>
<g opacity="0.2">
<path d="M117.615 55.7682C117.547 55.776 117.482 55.7978 117.423 55.8323C117.365 55.8668 117.314 55.9132 117.275 55.9685C117.235 56.0237 117.208 56.0867 117.194 56.1532C117.181 56.2197 117.181 56.2884 117.196 56.3547C117.216 56.4201 117.25 56.4806 117.295 56.5328C117.339 56.5849 117.394 56.6277 117.455 56.6585C117.516 56.6893 117.583 56.7076 117.651 56.7123C117.72 56.717 117.788 56.7079 117.853 56.6857C117.968 56.638 118.064 56.5539 118.126 56.4464C118.188 56.3389 118.213 56.2139 118.197 56.0908C118.178 55.967 118.124 55.8512 118.042 55.757C117.96 55.6627 117.852 55.5939 117.732 55.5587C117.64 55.5293 117.489 55.6257 117.568 55.6802L117.615 55.7682Z" fill="white"/>
</g>
</g>
<path d="M132.497 57.8966C131.077 58.6623 130.011 59.9499 129.522 61.4874C129.05 63.0124 128.837 64.6056 128.89 66.2011C128.89 67.2067 129.066 68.4218 129.992 68.8114C130.248 68.8846 130.498 68.9756 130.742 69.0838C131.064 69.2765 131.228 69.6452 131.475 69.9218C131.722 70.1983 132.179 70.4036 132.464 70.1564C132.669 69.6369 132.275 69.1005 131.999 68.6187C131.633 67.9573 131.458 67.207 131.495 66.452C131.532 65.6971 131.779 64.9674 132.208 64.345C132.145 64.4172 132.099 64.5022 132.072 64.594C132.045 64.6859 132.039 64.7825 132.053 64.8771C133.435 64.967 134.814 64.6572 136.025 63.9846C135.508 64.7198 134.891 65.3785 134.19 65.9413L136.042 65.1033C136.047 65.4051 135.986 65.7043 135.865 65.9806C135.743 66.2568 135.564 66.5036 135.338 66.7039L137.554 66.5782C137.118 68.1881 136.151 69.6037 134.81 70.5964C135.323 70.8056 135.888 70.8499 136.427 70.723C136.967 70.5961 137.453 70.3043 137.818 69.8883C138.018 69.5911 138.254 69.3208 138.522 69.0838C138.837 68.92 139.166 68.788 139.507 68.6899C140.113 68.3637 140.622 67.8822 140.982 67.2947C142.314 65.4637 143.601 63.1047 142.658 61.0475C140.936 57.2472 136.134 56.0991 132.497 57.8966Z" fill="#E1C5AC"/>
<path d="M141.946 65.4679C141.796 65.4843 141.651 65.5322 141.521 65.6083C141.391 65.6844 141.278 65.7871 141.19 65.9096C141.103 66.0322 141.042 66.1719 141.011 66.3196C140.981 66.4672 140.983 66.6196 141.015 66.7668C141.062 66.9106 141.137 67.0437 141.236 67.1583C141.334 67.273 141.455 67.367 141.59 67.4348C141.725 67.5026 141.873 67.5429 142.024 67.5534C142.174 67.5638 142.326 67.5443 142.469 67.4958C142.723 67.3898 142.936 67.2032 143.073 66.9647C143.211 66.7263 143.267 66.4492 143.232 66.176C143.187 65.9043 143.067 65.6505 142.886 65.4432C142.704 65.2359 142.469 65.0834 142.205 65.0028C141.996 64.94 141.665 65.1453 141.841 65.2752L141.946 65.4679Z" fill="#E1C5AC"/>
<path d="M135.853 70.5629C135.703 70.5788 135.558 70.6262 135.427 70.7021C135.297 70.7779 135.184 70.8806 135.095 71.0032C135.007 71.1258 134.946 71.2657 134.916 71.4136C134.885 71.5616 134.886 71.7143 134.919 71.8617C134.966 72.0056 135.041 72.1388 135.139 72.2536C135.238 72.3684 135.358 72.4626 135.493 72.5307C135.629 72.5989 135.776 72.6396 135.927 72.6507C136.078 72.6617 136.229 72.6428 136.373 72.595C136.628 72.4887 136.841 72.3015 136.978 72.0621C137.116 71.8228 137.171 71.5448 137.135 71.271C137.091 70.9996 136.971 70.7463 136.789 70.5396C136.608 70.333 136.372 70.1814 136.109 70.102C135.899 70.0349 135.568 70.2444 135.744 70.3701L135.853 70.5629Z" fill="#E1C5AC"/>
<path d="M128.672 72.8505C128.575 72.861 128.482 72.8918 128.399 72.9411C128.315 72.9903 128.243 73.0567 128.187 73.136C128.131 73.2153 128.093 73.3056 128.074 73.4009C128.056 73.4961 128.058 73.5942 128.081 73.6885C128.111 73.7796 128.158 73.8639 128.221 73.9365C128.284 74.009 128.36 74.0685 128.446 74.1113C128.531 74.1542 128.625 74.1796 128.72 74.1862C128.816 74.1927 128.912 74.1802 129.003 74.1494C129.164 74.082 129.298 73.9634 129.385 73.8119C129.473 73.6605 129.507 73.4846 129.485 73.3114C129.455 73.1399 129.379 72.9799 129.265 72.849C129.15 72.7181 129.001 72.6215 128.835 72.5698C128.701 72.5321 128.492 72.662 128.605 72.7416L128.672 72.8505Z" fill="#E1C5AC"/>
<path d="M108.761 30.2179C107.286 30.2766 105.761 30.4861 104.496 31.2528C103.038 32.1369 102.082 33.6662 101.412 35.2333C101.179 35.6937 101.053 36.2007 101.043 36.7165C101.068 37.4246 101.487 38.1118 101.353 38.8115C101.161 39.8254 99.8617 40.7179 100.385 41.6062C100.528 41.8054 100.731 41.9537 100.964 42.0291C101.197 42.1046 101.448 42.1032 101.68 42.0252C102.138 41.8573 102.555 41.5913 102.899 41.2458C103.025 41.3718 103.104 41.5375 103.121 41.7147C103.139 41.8919 103.094 42.0697 102.996 42.2179C102.788 42.5085 102.605 42.8154 102.447 43.1355C102.406 43.3073 102.399 43.4856 102.428 43.66C102.456 43.8343 102.519 44.0012 102.613 44.1508C102.708 44.3003 102.831 44.4295 102.976 44.5308C103.12 44.632 103.284 44.7032 103.457 44.7402C103.81 44.7948 104.172 44.7445 104.498 44.5956C104.823 44.4466 105.098 44.2056 105.288 43.9023C104.978 44.9693 104.67 46.0391 104.366 47.1118C104.282 47.3107 104.239 47.5244 104.239 47.7402C104.239 47.9561 104.282 48.1698 104.366 48.3687C104.647 48.8631 105.367 48.9134 105.891 48.6914C107.986 47.7947 107.596 44.4469 109.314 42.9344C110.152 42.2095 111.384 41.9665 111.937 41.0238C112.082 40.6781 112.254 40.3446 112.453 40.0266C112.79 39.704 113.187 39.4507 113.622 39.2807C115.574 38.2039 116.01 34.9902 115.08 33.0754C113.965 30.7794 111.041 30.1299 108.761 30.2179Z" fill="#E1C5AC"/>
<path opacity="0.8" d="M108.761 30.2179C107.286 30.2766 105.761 30.4861 104.496 31.2528C103.038 32.1369 102.082 33.6662 101.412 35.2333C101.179 35.6937 101.053 36.2007 101.043 36.7165C101.068 37.4246 101.487 38.1118 101.353 38.8115C101.161 39.8254 99.8617 40.7179 100.385 41.6062C100.528 41.8054 100.731 41.9537 100.964 42.0291C101.197 42.1046 101.448 42.1032 101.68 42.0252C102.138 41.8573 102.555 41.5913 102.899 41.2458C103.025 41.3718 103.104 41.5375 103.121 41.7147C103.139 41.8919 103.094 42.0697 102.996 42.2179C102.788 42.5085 102.605 42.8154 102.447 43.1355C102.406 43.3073 102.399 43.4856 102.428 43.66C102.456 43.8343 102.519 44.0012 102.613 44.1508C102.708 44.3003 102.831 44.4295 102.976 44.5308C103.12 44.632 103.284 44.7032 103.457 44.7402C103.81 44.7948 104.172 44.7445 104.498 44.5956C104.823 44.4466 105.098 44.2056 105.288 43.9023C104.978 44.9693 104.67 46.0391 104.366 47.1118C104.282 47.3107 104.239 47.5244 104.239 47.7402C104.239 47.9561 104.282 48.1698 104.366 48.3687C104.647 48.8631 105.367 48.9134 105.891 48.6914C107.986 47.7947 107.596 44.4469 109.314 42.9344C110.152 42.2095 111.384 41.9665 111.937 41.0238C112.082 40.6781 112.254 40.3446 112.453 40.0266C112.79 39.704 113.187 39.4507 113.622 39.2807C115.574 38.2039 116.01 34.9902 115.08 33.0754C113.965 30.7794 111.041 30.1299 108.761 30.2179Z" fill="white"/>
<path d="M105.175 51.9805C105.095 52.2209 105.083 52.4786 105.14 52.7254C105.197 52.9722 105.32 53.1986 105.497 53.3799C105.664 53.4896 105.852 53.564 106.048 53.5985C106.245 53.6331 106.447 53.6272 106.641 53.581C106.919 53.5679 107.19 53.4841 107.426 53.3375C107.663 53.1908 107.859 52.9863 107.994 52.743C108.052 52.5728 108.075 52.3929 108.062 52.2138C108.049 52.0347 108 51.8599 107.919 51.6997C107.588 50.9707 107.022 50.7109 106.499 50.2081C105.84 50.6007 105.364 51.2379 105.175 51.9805Z" fill="#E1C5AC"/>
<path opacity="0.8" d="M105.175 51.9805C105.095 52.2209 105.083 52.4786 105.14 52.7254C105.197 52.9722 105.32 53.1986 105.497 53.3799C105.664 53.4896 105.852 53.564 106.048 53.5985C106.245 53.6331 106.447 53.6272 106.641 53.581C106.919 53.5679 107.19 53.4841 107.426 53.3375C107.663 53.1908 107.859 52.9863 107.994 52.743C108.052 52.5728 108.075 52.3929 108.062 52.2138C108.049 52.0347 108 51.8599 107.919 51.6997C107.588 50.9707 107.022 50.7109 106.499 50.2081C105.84 50.6007 105.364 51.2379 105.175 51.9805Z" fill="white"/>
<g opacity="0.6">
<path d="M101.131 49.5838C101.075 49.613 101.027 49.6555 100.991 49.7078C100.955 49.76 100.933 49.8203 100.926 49.8832C100.919 49.9462 100.927 50.0099 100.951 50.0688C100.974 50.1277 101.012 50.1798 101.06 50.2207C101.17 50.2928 101.303 50.3203 101.432 50.2977C101.561 50.2752 101.677 50.2042 101.756 50.0992C101.829 49.9906 101.873 49.8653 101.885 49.7349C101.897 49.6045 101.875 49.4732 101.823 49.3534L101.349 49.412L101.131 49.5838Z" fill="white"/>
</g>
<g opacity="0.6">
<path d="M101.559 45.6914C101.508 45.9386 101.278 46.1103 101.278 46.3827C101.282 46.4486 101.302 46.5126 101.336 46.5693C101.37 46.626 101.417 46.6739 101.473 46.709C101.529 46.7442 101.593 46.7656 101.658 46.7715C101.724 46.7774 101.791 46.7676 101.852 46.743C101.898 46.9613 101.898 47.1868 101.852 47.405C101.852 47.6271 101.986 47.9036 102.208 47.8701C102.43 47.8366 102.468 47.6439 102.518 47.4721L102.723 46.7849C102.788 46.6253 102.8 46.449 102.757 46.2821C102.698 46.1229 102.472 46.0182 102.338 46.1355C102.338 45.9763 102.338 45.8171 102.338 45.6578C102.242 45.6237 102.139 45.6102 102.038 45.6181C101.936 45.6261 101.837 45.6553 101.747 45.7039C101.642 45.7668 101.441 45.7919 101.466 45.6746L101.559 45.6914Z" fill="white"/>
</g>
<path d="M87.8156 65.8575C90.4092 68.2961 102.656 73.2109 103.453 73.324C103.749 73.385 104.057 73.3697 104.346 73.2796C104.636 73.1895 104.898 73.0274 105.108 72.8086C105.289 72.6005 105.424 72.3555 105.502 72.0904C105.58 71.8253 105.6 71.5465 105.56 71.273C105.521 70.9995 105.422 70.7379 105.272 70.5061C105.121 70.2743 104.922 70.0778 104.689 69.9302C101.672 67.9776 96.3799 64.3198 94.1885 62.4092C92.4749 60.9176 98.3073 47.6564 94.9134 45.6871C89.3994 42.4902 84.7528 62.9748 87.8156 65.8575Z" fill="#E1C5AC"/>
<g opacity="0.1">
<path d="M87.8156 65.8575C90.4092 68.2961 102.656 73.2109 103.453 73.324C103.749 73.385 104.057 73.3697 104.346 73.2796C104.636 73.1895 104.898 73.0274 105.108 72.8086C105.289 72.6005 105.424 72.3555 105.502 72.0904C105.58 71.8253 105.6 71.5465 105.56 71.273C105.521 70.9995 105.422 70.7379 105.272 70.5061C105.121 70.2743 104.922 70.0778 104.689 69.9302C101.672 67.9776 96.3799 64.3198 94.1885 62.4092C92.4749 60.9176 98.3073 47.6564 94.9134 45.6871C89.3994 42.4902 84.7528 62.9748 87.8156 65.8575Z" fill="#323232"/>
</g>
<path d="M102.95 73.324L105.849 75.7039C105.849 75.7039 108.468 73.1899 108.606 72.8757C108.606 72.8757 107.349 71.2793 105.673 70.9064L104.567 70.7598C104.419 70.741 104.268 70.7525 104.124 70.7936C103.98 70.8346 103.845 70.9043 103.729 70.9986L102.975 71.6145C102.847 71.7164 102.743 71.8454 102.671 71.9922C102.599 72.1389 102.561 72.2999 102.558 72.4633C102.556 72.6268 102.59 72.7888 102.657 72.9376C102.725 73.0864 102.825 73.2184 102.95 73.324Z" fill="#FFB373"/>
<path d="M105.258 75.2346L108.501 72.7793L109.834 74.0363C109.892 74.0903 109.938 74.1563 109.969 74.2297C110 74.3032 110.014 74.3824 110.011 74.462C110.009 74.5416 109.989 74.6196 109.953 74.6907C109.917 74.7619 109.867 74.8245 109.804 74.8743L108.091 76.257C107.911 76.404 107.688 76.4885 107.456 76.4976C107.224 76.5066 106.995 76.4398 106.804 76.3072L105.258 75.2346Z" fill="#FFB373"/>
<path d="M94.1886 45.4022C97.8212 47.9916 91.9553 61.9148 90.5433 70.0894C90.162 72.3101 75.6229 71.0992 73.8254 68.6271L75.2333 46.2905C75.2137 45.6791 75.3225 45.0705 75.5526 44.5037C75.7826 43.937 76.1289 43.4247 76.569 43C77.0092 42.5752 77.5334 42.2474 78.108 42.0376C78.6826 41.8279 79.2948 41.7408 79.905 41.7821C80.919 41.8492 86.3869 39.8464 94.1886 45.4022Z" fill="#E1C5AC"/>
<path opacity="0.1" d="M74.412 59.3505C74.412 59.3505 74.8017 53.1159 75.2877 49.5084C76.7333 49.6089 77.8017 49.5754 78.2207 49.3533C79.1048 48.8631 80.1607 47.3422 80.7347 45.7625C79.3688 52.9525 74.412 59.3505 74.412 59.3505Z" fill="#323232"/>
<path d="M90.426 70.391C90.426 70.391 90.426 74.9204 91.6411 78.4525C93.028 82.4246 86.9526 83.5139 83.4204 81.2304L81.1369 79.7514C81.1369 79.7514 80.0308 79.5754 72.1118 75.2514C71.9442 75.1592 71.5796 74.3086 72.0866 72.2053C72.4805 70.5586 72.3255 70.3827 73.2766 68.9832L80.4749 70.8687C80.4749 70.8687 85.7961 71.6983 90.426 70.391Z" fill="#263238"/>
<path d="M89.6299 129.825L87.359 140.103C86.9944 140.204 83.169 140.749 83.3282 139.751C83.8101 136.701 84.8408 130.299 84.8408 130.299L89.6299 129.825Z" fill="#FFB373"/>
<path d="M88.8464 137.74C88.8265 137.732 88.8096 137.718 88.7977 137.7C88.7857 137.682 88.7794 137.661 88.7794 137.64C88.7794 137.618 88.7857 137.597 88.7977 137.579C88.8096 137.561 88.8265 137.547 88.8464 137.539C88.9176 137.51 90.5643 136.839 91.264 137.12C91.3315 137.144 91.3933 137.181 91.4453 137.23C91.4973 137.279 91.5383 137.339 91.5657 137.405C91.6064 137.476 91.6235 137.558 91.6145 137.64C91.6054 137.721 91.5707 137.797 91.5154 137.858C91.3143 138.088 90.7612 138.096 90.1956 138.017C89.7382 137.967 89.2866 137.874 88.8464 137.74ZM90.9958 137.275C90.3867 137.275 89.7834 137.393 89.2193 137.623C90.0154 137.841 91.1299 137.983 91.3729 137.723C91.4023 137.69 91.4358 137.631 91.3729 137.489C91.3375 137.41 91.2729 137.349 91.1928 137.317C91.1268 137.296 91.0596 137.28 90.9916 137.267L90.9958 137.275Z" fill="#E1C5AC"/>
<path d="M88.8003 137.686C88.7902 137.67 88.7848 137.652 88.7848 137.633C88.7848 137.615 88.7902 137.597 88.8003 137.581C88.8003 137.531 89.0852 136.37 89.7053 135.98C89.7953 135.929 89.8947 135.896 89.9977 135.884C90.1006 135.872 90.205 135.88 90.3045 135.909C90.5894 135.976 90.6397 136.135 90.6564 136.257C90.6564 136.76 89.5 137.568 88.9386 137.736H88.8925L88.8003 137.686ZM89.8017 136.173C89.4275 136.505 89.1643 136.944 89.0475 137.43C89.6299 137.175 90.4679 136.521 90.4344 136.223C90.4344 136.198 90.4344 136.123 90.25 136.077H90.183C90.0484 136.061 89.9127 136.095 89.8017 136.173Z" fill="#E1C5AC"/>
<path d="M88.2849 136.839L84.074 136.056C83.9872 136.04 83.8975 136.055 83.8207 136.098C83.744 136.142 83.6853 136.212 83.6551 136.295L82.1844 139.626C82.0587 139.969 82.6578 140.501 82.6956 140.506C85.2095 141.235 90.7361 142.374 92.5671 142.676C94.3981 142.978 94.9386 141.201 94.2179 140.916C90.9749 139.626 89.8729 138.402 88.9595 137.258C88.7971 137.037 88.5554 136.887 88.2849 136.839Z" fill="#263238"/>
<g opacity="0.2">
<path d="M84.3338 133.467L84.8408 130.303L89.6299 129.825L88.6494 134.02L84.3338 133.467Z" fill="#323232"/>
</g>
<path d="M54.2207 120.851L46.6788 128.196C46.3226 128.082 42.824 126.44 43.5028 125.682C45.5978 123.394 49.9511 118.609 49.9511 118.609L54.2207 120.851Z" fill="#FFB373"/>
<path d="M49.2263 127.035C49.2147 127.017 49.2086 126.996 49.2086 126.974C49.2086 126.953 49.2147 126.932 49.2263 126.913C49.2391 126.896 49.2564 126.883 49.2763 126.874C49.2963 126.866 49.3181 126.864 49.3394 126.867C49.4148 126.867 51.1578 127.223 51.581 127.856C51.6258 127.915 51.6576 127.983 51.6742 128.055C51.6908 128.127 51.6919 128.202 51.6774 128.275C51.6711 128.356 51.6394 128.434 51.5867 128.496C51.5341 128.559 51.4632 128.603 51.3841 128.623C51.0908 128.707 50.6257 128.409 50.1983 128.032C49.8425 127.732 49.5169 127.398 49.2263 127.035ZM51.2751 127.827C50.7663 127.492 50.197 127.26 49.5992 127.144C50.1439 127.764 50.9944 128.489 51.338 128.401C51.3841 128.401 51.4427 128.359 51.4721 128.208C51.48 128.166 51.4793 128.123 51.4699 128.081C51.4606 128.039 51.4428 128 51.4176 127.965C51.3745 127.911 51.3268 127.86 51.2751 127.814V127.827Z" fill="#E1C5AC"/>
<path d="M49.2179 126.955C49.2155 126.937 49.2186 126.919 49.2268 126.902C49.235 126.886 49.248 126.872 49.264 126.863C49.3017 126.83 50.1648 126.004 50.898 126.025C51.0017 126.032 51.103 126.06 51.1958 126.107C51.2886 126.153 51.3712 126.218 51.4385 126.297C51.5085 126.353 51.5569 126.431 51.5753 126.518C51.5937 126.605 51.5809 126.696 51.5391 126.775C51.2793 127.194 49.8631 127.24 49.2933 127.073L49.2514 127.052L49.2179 126.955ZM50.8939 126.243C50.3949 126.318 49.9311 126.545 49.5656 126.892C50.1941 127.001 51.2416 126.913 51.3841 126.645C51.3841 126.62 51.4344 126.557 51.3128 126.423L51.25 126.394C51.1495 126.301 51.0178 126.251 50.8813 126.251L50.8939 126.243Z" fill="#E1C5AC"/>
<path d="M49.243 125.971L46.155 123.008C46.0912 122.947 46.0078 122.911 45.9195 122.905C45.8312 122.9 45.7439 122.926 45.6732 122.979L42.6145 124.957C42.3212 125.175 42.5307 125.946 42.5601 125.975C44.2737 127.969 48.2584 131.946 49.6243 133.203C50.9902 134.46 52.4148 133.274 51.9665 132.633C49.9679 129.779 49.7165 128.149 49.5824 126.696C49.5658 126.42 49.4444 126.16 49.243 125.971Z" fill="#263238"/>
<g opacity="0.2">
<path d="M47.7975 120.989L49.9553 118.621L54.2207 120.851L51.0992 123.821L47.7975 120.989Z" fill="#323232"/>
</g>
<path d="M79.1886 81.2388C79.3603 85.7639 85.5028 98.4176 86.7556 106.265C87.7151 112.328 85 123.817 83.5629 130.265C83.4907 130.56 83.4864 130.866 83.5503 131.163C83.6142 131.459 83.7446 131.736 83.9316 131.975C83.9316 131.975 87.669 132.624 88.8506 132.679C92.6215 132.855 95.5545 114.088 96.25 109.5C97.3981 101.707 95.257 88.1061 90.4134 74.9204C89.6006 72.7081 87.1913 73.4539 84.1662 73.6341C83.6173 73.6676 79.021 76.8436 79.1886 81.2388Z" fill="#263238"/>
<path opacity="0.2" d="M82.595 76.4329C82.0252 75.4986 80.3576 85.5921 80.3576 85.5921L83.0349 93.8547C83.0349 93.8547 86.9651 83.6019 82.595 76.4329Z" fill="#323232"/>
<path d="M72.1411 74.4972C55.31 114.901 47.2821 116.397 48.2584 119.518C48.2584 119.518 51.25 121.881 51.9874 122.807C53.7304 125.003 67.0712 110.996 69.3338 106.94C74.3827 97.8771 80.4916 87.9218 83.4036 77.1578C84.0195 74.8827 83.0852 72.3771 80.4707 70.8729C79.9972 70.5964 73.8338 70.4372 72.1411 74.4972Z" fill="#263238"/>
<path d="M95.7514 31.0642C96.0415 31.0282 96.3127 30.9014 96.5264 30.702C96.7401 30.5026 96.8853 30.2408 96.9414 29.9539C97.0384 29.3745 96.9505 28.7793 96.69 28.2528C96.3929 27.5008 95.8647 26.8626 95.1816 26.4302C94.2728 25.9802 93.2355 25.8617 92.2486 26.095C91.264 26.2709 90.3129 26.6061 89.3157 26.757C88.5966 26.8149 87.8817 26.9157 87.1746 27.0587C86.8233 27.1322 86.4928 27.2832 86.2072 27.5007C85.9216 27.7181 85.6881 27.9965 85.5238 28.3156C85.2514 28.986 85.5698 29.8994 86.2696 30.0712C85.2514 30.3645 83.7556 30.5656 82.9511 31.2737C82.1467 31.9818 81.736 33.2053 82.2598 34.1271C82.6302 34.7513 83.2065 35.2269 83.8897 35.4721C83.8897 35.4721 82.2137 39.2723 84.7863 40.2654C87.1076 41.162 91.9092 41.3296 91.9092 41.3296C94.0168 40.0098 95.7514 31.0642 95.7514 31.0642Z" fill="#263238"/>
<path d="M98.8185 35.0991C98.9946 35.8133 98.9946 36.5595 98.8185 37.2737C98.5796 37.9651 97.8673 38.5558 97.1425 38.3924C97.7333 39.088 97.3813 40.2402 96.6439 40.7807C95.9065 41.3212 94.9386 41.4008 94.0252 41.4134C93.0612 41.4267 92.0972 41.3833 91.1383 41.2835C90.5959 41.2821 90.0711 41.0909 89.655 40.743C89.0685 40.1229 89.2905 39.1173 89.6215 38.3296C90.5051 36.4047 91.6316 34.6009 92.9735 32.9623C93.7025 32.0195 95.4875 29.7276 96.9497 30.3352C98.412 30.9427 98.6215 33.817 98.8185 35.0991Z" fill="#263238"/>
<path d="M86.8478 40.324C87.2024 39.1866 87.4286 38.0131 87.5224 36.8254L90.5643 40.391C89.8394 41.6229 89.1648 43.1522 90.4469 44.1243C90.6851 44.3017 90.8793 44.5315 91.0145 44.796C91.1496 45.0605 91.2221 45.3525 91.2263 45.6494C91.2265 45.8257 91.1996 46.0009 91.1467 46.169C91.0423 46.5141 90.8507 46.8264 90.5903 47.0758C90.33 47.3251 90.0096 47.5031 89.6604 47.5924C89.3111 47.6817 88.9447 47.6794 88.5965 47.5857C88.2484 47.4919 87.9304 47.3099 87.6732 47.0573C86.2486 45.6871 85.6034 44.6271 85.3143 43.9022C85.213 43.6276 85.1959 43.3289 85.2653 43.0445C85.3348 42.7602 85.4875 42.5029 85.7039 42.3059C86.0692 41.9353 86.3633 41.5007 86.5712 41.0237L86.8478 40.324Z" fill="#FFB373"/>
<path opacity="0.3" d="M86.8436 40.3324C86.9279 40.2265 87.0062 40.116 87.0782 40.0014L90.3799 40.7262C89.1983 41.7611 87.3003 41.5056 86.5796 41.0195L86.8436 40.3324Z" fill="#323232"/>
<path d="M92.6048 39.8422L92.9106 39.6871C93.8827 38.8869 94.419 37.8519 95.1187 36.2137C95.3031 35.7947 95.4916 35.3338 95.7053 34.8268C95.9948 34.156 96.128 33.4282 96.095 32.6983C96.0762 32.3152 96.0129 31.9355 95.9064 31.567C95.1648 33 94.7584 34.5712 94.2766 36.1005C93.9065 37.4233 93.3432 38.6841 92.6048 39.8422Z" fill="#263238"/>
<path d="M85.2346 36.1299C85.1044 37.1603 85.3614 38.2024 85.956 39.054C86.5506 39.9056 87.4403 40.506 88.4525 40.7388H88.4777C89.2656 40.9172 90.0866 40.8839 90.8576 40.6424C91.1461 40.557 91.4265 40.4462 91.6955 40.3114C91.8087 40.2612 91.9134 40.2025 92.014 40.148C92.3334 39.9717 92.6363 39.7669 92.919 39.5363C93.8911 38.736 94.4274 37.7011 95.1271 36.0628C95.3115 35.6438 95.5 35.1829 95.7137 34.676C96.0031 34.0051 96.1364 33.2773 96.1034 32.5475C96.0839 32.1644 96.0206 31.7848 95.9148 31.4162C95.8668 31.2532 95.808 31.0937 95.7388 30.9385C95.3812 30.0622 94.7591 29.3191 93.9593 28.813C93.1594 28.3068 92.2217 28.0626 91.2765 28.1145C89.655 28.1857 88.3436 29.1955 87.3338 30.574C87.2332 30.7123 87.1411 30.8547 87.0489 30.993C86.0719 32.5501 85.4523 34.3045 85.2346 36.1299Z" fill="#FFB373"/>
<path opacity="0.2" d="M94.1509 37.1732C94.1179 37.5727 94.062 37.97 93.9833 38.3631C93.6928 38.8078 93.3368 39.2062 92.9274 39.5447C92.6447 39.7753 92.3418 39.98 92.0224 40.1564C91.9218 40.2109 91.8171 40.2695 91.7039 40.3198C91.4349 40.4546 91.1545 40.5654 90.8659 40.6508C90.0948 40.8909 89.2741 40.9241 88.4861 40.7472H88.4609C87.4487 40.5144 86.559 39.914 85.9644 39.0624C85.3698 38.2108 85.1128 37.1687 85.243 36.1382C85.2766 35.8366 85.3268 35.5223 85.3939 35.2039C85.8548 35.7905 87.4302 36.6871 92.9567 36.1424C93.1997 36.1173 93.4344 35.9623 93.669 36.0335C94.0922 36.1508 94.176 36.7206 94.1509 37.1732Z" fill="#323232"/>
<path d="M90.3422 33.8631C90.25 34.1271 90.0363 34.2821 89.8687 34.236C89.7011 34.1899 89.6341 33.9092 89.7263 33.6452C89.8184 33.3813 90.0363 33.2262 90.2039 33.2723C90.3715 33.3184 90.4176 33.6075 90.3422 33.8631Z" fill="#263238"/>
<path d="M87.4176 32.8282C87.3212 33.0964 87.1076 33.2472 86.94 33.2011C86.7724 33.155 86.7095 32.8743 86.7975 32.6103C86.8855 32.3463 87.1076 32.1913 87.2752 32.2416C87.4427 32.2919 87.5056 32.5642 87.4176 32.8282Z" fill="#263238"/>
<path d="M88.1508 33.6285C87.7076 34.1477 87.196 34.6044 86.6299 34.986C86.7283 35.1282 86.8565 35.2471 87.0055 35.3347C87.1546 35.4222 87.321 35.4763 87.493 35.493L88.1508 33.6285Z" fill="#E8483F"/>
<path d="M87.4972 37.0475C87.3647 37.0234 87.2343 36.9884 87.1076 36.9427C87.0871 36.9351 87.0702 36.9202 87.0602 36.9008C87.0501 36.8815 87.0476 36.8591 87.0531 36.838C87.0623 36.8181 87.0785 36.8024 87.0987 36.7939C87.1188 36.7854 87.1414 36.7847 87.162 36.7919C87.4829 36.9115 87.8275 36.9533 88.1676 36.914C88.5077 36.8747 88.8337 36.7553 89.1187 36.5656C89.1361 36.5571 89.1558 36.5547 89.1747 36.5591C89.1935 36.5634 89.2103 36.5742 89.2221 36.5894C89.234 36.6047 89.2402 36.6237 89.2396 36.643C89.2391 36.6623 89.2319 36.6809 89.2193 36.6955C88.9711 36.8678 88.6905 36.9879 88.3944 37.0484C88.0984 37.1089 87.7931 37.1086 87.4972 37.0475Z" fill="#263238"/>
<path d="M91.7291 33.6829C91.6954 33.6769 91.6647 33.6602 91.6413 33.6353C91.6179 33.6104 91.6031 33.5786 91.5992 33.5447C91.5343 33.2881 91.4171 33.0477 91.2549 32.8385C91.0926 32.6294 90.8889 32.4562 90.6564 32.3296C90.6177 32.3083 90.5888 32.2729 90.5755 32.2307C90.5622 32.1886 90.5657 32.143 90.5852 32.1033C90.5945 32.0846 90.6075 32.0679 90.6233 32.0542C90.6391 32.0405 90.6574 32.03 90.6773 32.0234C90.6971 32.0168 90.7181 32.0142 90.7389 32.0157C90.7598 32.0171 90.7802 32.0227 90.7989 32.0321C91.0797 32.1819 91.325 32.3904 91.518 32.6434C91.7111 32.8965 91.8474 33.1881 91.9176 33.4986C91.9224 33.5418 91.9102 33.5852 91.8836 33.6196C91.8571 33.654 91.8182 33.6767 91.7751 33.6829C91.76 33.6864 91.7442 33.6864 91.7291 33.6829Z" fill="#263238"/>
<path d="M87.028 31.1396C86.9998 31.1329 86.9737 31.1195 86.9518 31.1006C86.9299 31.0816 86.9129 31.0576 86.9023 31.0307C86.8885 30.989 86.8913 30.9436 86.91 30.9038C86.9287 30.8641 86.9619 30.833 87.0028 30.817C87.2437 30.7178 87.5056 30.6804 87.7647 30.7082C88.0237 30.736 88.2717 30.8282 88.4861 30.9762C88.5185 31.0012 88.5404 31.0375 88.5474 31.0778C88.5543 31.1182 88.5459 31.1597 88.5238 31.1941C88.5113 31.2114 88.4955 31.2261 88.4773 31.2372C88.4591 31.2483 88.4388 31.2557 88.4177 31.2588C88.3966 31.2619 88.3751 31.2608 88.3545 31.2554C88.3338 31.2501 88.3144 31.2406 88.2975 31.2276C88.1264 31.1171 87.9309 31.0498 87.728 31.0315C87.5251 31.0133 87.3208 31.0446 87.1327 31.1229C87.1002 31.1386 87.0638 31.1444 87.028 31.1396Z" fill="#263238"/>
<path d="M93.2752 36.7667C93.3757 36.9846 94.0461 36.0921 94.2849 36.0963C94.5681 36.0967 94.8499 36.1347 95.1229 36.2095C94.419 37.8477 93.8869 38.8827 92.9106 39.6829C94.4549 38.9381 95.7608 37.7772 96.6816 36.331C97.1326 35.4849 97.3486 34.5334 97.3074 33.5755C97.2661 32.6176 96.969 31.6882 96.447 30.8841C96.3673 30.7625 96.1872 30.7709 96.028 30.7961C95.8687 30.8212 95.19 30.7961 94.8883 30.7961C94.6729 30.8101 94.4638 30.8743 94.2776 30.9834C94.0914 31.0925 93.9332 31.2436 93.8157 31.4246C94.4986 33.8212 92.9651 36.1005 93.2752 36.7667Z" fill="#263238"/>
<path d="M95.7011 37.6299C95.3007 38.1366 94.7165 38.4649 94.0754 38.5433C93.2374 38.6313 92.9483 37.8226 93.3087 37.081C93.6397 36.4148 94.4735 35.5642 95.2696 35.824C95.4427 35.8893 95.5971 35.9965 95.7188 36.1359C95.8406 36.2753 95.926 36.4426 95.9675 36.623C96.009 36.8034 96.0052 36.9913 95.9565 37.1698C95.9079 37.3484 95.8158 37.5122 95.6886 37.6466L95.7011 37.6299Z" fill="#FFB373"/>
<path d="M88.1718 28.8603C87.8863 28.9926 87.6395 29.196 87.4553 29.4511C87.3655 29.5805 87.3205 29.7358 87.3273 29.8932C87.3341 30.0506 87.3923 30.2014 87.493 30.3226C87.6077 30.4092 87.7395 30.4704 87.8796 30.5022C88.0198 30.534 88.1651 30.5356 88.3059 30.507C89.124 30.4344 89.9191 30.1979 90.6439 29.8114C90.3718 29.9165 90.1217 30.0714 89.9064 30.2681C89.8001 30.3678 89.7232 30.4947 89.684 30.6351C89.6448 30.7755 89.645 30.9239 89.6844 31.0642C89.8101 31.4204 90.2291 31.5628 90.5978 31.6257C91.8799 31.8394 93.1914 31.6257 94.4693 31.3701C95.1062 31.2528 95.8436 31.0642 96.1034 30.4693C96.4176 29.757 95.8101 28.9483 95.1145 28.6047C94.0233 28.0811 92.8211 27.8308 91.6116 27.8753C90.4021 27.9198 89.2216 28.2579 88.1718 28.8603Z" fill="#263238"/>
<path d="M89.0768 37.7933C88.8081 38.2676 88.6145 38.7806 88.5028 39.3142C88.3776 39.7723 88.3059 40.2433 88.2891 40.7179C88.1693 40.2872 88.0151 39.8669 87.8282 39.4609C87.736 39.222 87.2291 37.7639 87.4092 37.8687C87.672 37.9941 87.9616 38.0528 88.2525 38.0396C88.5433 38.0264 88.8265 37.9418 89.0768 37.7933Z" fill="#263238"/>
<path d="M80.743 45.7626C80.1648 47.3422 79.1089 48.8631 78.229 49.3533C77.831 49.5754 76.7542 49.6089 75.2961 49.5084C70.331 49.1564 61.0503 47.1704 60.4134 45.5028C59.8729 44.0991 59.7514 43.1774 59.8519 42.5698L56.6927 26.0614C56.6203 25.6804 56.588 25.2928 56.5964 24.905L55.5573 24.5405C55.9691 24.3502 56.4068 24.2217 56.8561 24.1592C57.554 24.0652 58.2636 24.1976 58.8806 24.5371C59.4975 24.8765 59.9893 25.4049 60.2835 26.0447L62.567 30.9218C64.0958 34.1795 65.0132 37.6902 65.2737 41.2793V41.3338C70.6662 41.3338 79.993 41.5349 80.3575 41.8031C81.4008 42.5447 81.3045 44.1829 80.743 45.7626Z" fill="#E1C5AC"/>
<path d="M59.7472 144.763L75.1117 139.383L37.6662 32.4804L11.7305 41.5684L45.4721 137.895C46.455 140.698 48.5109 142.997 51.1879 144.284C53.8648 145.572 56.9435 145.744 59.7472 144.763Z" fill="#E1C5AC"/>
<g opacity="0.8">
<path d="M59.7472 144.763L75.1117 139.383L37.6662 32.4804L11.7305 41.5684L45.4721 137.895C46.455 140.698 48.5109 142.997 51.1879 144.284C53.8648 145.572 56.9435 145.744 59.7472 144.763Z" fill="white"/>
</g>
<path d="M61.1663 107.143L40.5916 114.413L47.8613 134.988L68.436 127.718L61.1663 107.143Z" fill="#263238"/>
<path d="M52.8088 83.4915L32.2341 90.7612L39.5038 111.336L60.0785 104.066L52.8088 83.4915Z" fill="#263238"/>
<path opacity="0.2" d="M52.8088 83.4915L32.2341 90.7612L39.5038 111.336L60.0785 104.066L52.8088 83.4915Z" fill="white"/>
<path d="M44.4471 59.8356L23.8724 67.1053L31.1422 87.68L51.7168 80.4102L44.4471 59.8356Z" fill="#263238"/>
<path opacity="0.4" d="M44.4471 59.8356L23.8724 67.1053L31.1422 87.68L51.7168 80.4102L44.4471 59.8356Z" fill="white"/>
<path d="M36.091 36.1877L15.5163 43.4574L22.786 64.0321L43.3607 56.7624L36.091 36.1877Z" fill="#263238"/>
<path opacity="0.6" d="M36.091 36.1877L15.5163 43.4574L22.786 64.0321L43.3607 56.7624L36.091 36.1877Z" fill="white"/>
<path d="M59.1355 141.675L75.1955 139.014L56.676 27.2681L29.5629 31.7639L46.2556 132.457C46.7413 135.387 48.3711 138.004 50.7865 139.733C53.2019 141.462 56.2052 142.16 59.1355 141.675Z" fill="#E1C5AC"/>
<g opacity="0.8">
<path d="M59.1355 141.675L75.1955 139.014L56.676 27.2681L29.5629 31.7639L46.2556 132.457C46.7413 135.387 48.3711 138.004 50.7865 139.733C53.2019 141.462 56.2052 142.16 59.1355 141.675Z" fill="white"/>
</g>
<path d="M67.0034 104.85L45.4859 108.478L49.1137 129.995L70.6313 126.367L67.0034 104.85Z" fill="#E1C5AC"/>
<path d="M62.8322 80.1155L41.3147 83.7433L44.9425 105.261L66.4601 101.633L62.8322 80.1155Z" fill="#E1C5AC"/>
<path opacity="0.2" d="M62.8322 80.1155L41.3147 83.7433L44.9425 105.261L66.4601 101.633L62.8322 80.1155Z" fill="white"/>
<path d="M58.6603 55.3805L37.1428 59.0084L40.7706 80.5259L62.2881 76.8981L58.6603 55.3805Z" fill="#E1C5AC"/>
<path opacity="0.4" d="M58.6603 55.3805L37.1428 59.0084L40.7706 80.5259L62.2881 76.8981L58.6603 55.3805Z" fill="white"/>
<path d="M54.4932 30.6455L32.9757 34.2733L36.6035 55.7909L58.1211 52.163L54.4932 30.6455Z" fill="#E1C5AC"/>
<path opacity="0.6" d="M54.4932 30.6455L32.9757 34.2733L36.6035 55.7909L58.1211 52.163L54.4932 30.6455Z" fill="white"/>
<path d="M59.3995 138.947L75.6816 138.993L75.9917 25.7221L48.514 25.6466L48.2333 127.714C48.2283 129.185 48.5133 130.642 49.0718 132.003C49.6304 133.364 50.4517 134.601 51.4887 135.644C52.5256 136.687 53.758 137.516 55.1154 138.083C56.4728 138.649 57.9286 138.943 59.3995 138.947Z" fill="#E1C5AC"/>
<g opacity="0.8">
<path d="M59.3995 138.947L75.6816 138.993L75.9917 25.7221L48.514 25.6466L48.2333 127.714C48.2283 129.185 48.5133 130.642 49.0718 132.003C49.6304 133.364 50.4517 134.601 51.4887 135.644C52.5256 136.687 53.758 137.516 55.1154 138.083C56.4728 138.649 57.9286 138.943 59.3995 138.947Z" fill="white"/>
</g>
<path d="M59.7933 132.038C59.7942 132.631 59.6189 133.212 59.2898 133.706C58.9606 134.199 58.4924 134.585 57.9443 134.812C57.3962 135.04 56.7929 135.1 56.2106 134.985C55.6284 134.869 55.0935 134.584 54.6735 134.165C54.2535 133.745 53.9674 133.211 53.8513 132.629C53.7352 132.047 53.7944 131.443 54.0213 130.895C54.2482 130.346 54.6328 129.878 55.1262 129.548C55.6196 129.218 56.1998 129.042 56.7933 129.042C57.1871 129.041 57.5771 129.118 57.9411 129.269C58.305 129.419 58.6358 129.64 58.9144 129.918C59.193 130.196 59.4141 130.527 59.5649 130.89C59.7157 131.254 59.7933 131.644 59.7933 132.038Z" stroke="#E1C5AC" stroke-width="2" stroke-miterlimit="10"/>
<path d="M73.2765 103.944H51.4553V125.765H73.2765V103.944Z" fill="#E1C5AC"/>
<path d="M73.2765 78.8589H51.4553V100.68H73.2765V78.8589Z" fill="#E1C5AC"/>
<path opacity="0.2" d="M73.2765 78.8589H51.4553V100.68H73.2765V78.8589Z" fill="#323232"/>
<path d="M73.2765 53.7737H51.4553V75.595H73.2765V53.7737Z" fill="#E1C5AC"/>
<path opacity="0.4" d="M73.2765 53.7737H51.4553V75.595H73.2765V53.7737Z" fill="#323232"/>
<path d="M73.2765 28.6927H51.4553V50.5139H73.2765V28.6927Z" fill="#E1C5AC"/>
<path opacity="0.6" d="M73.2765 28.6927H51.4553V50.5139H73.2765V28.6927Z" fill="#323232"/>
<path d="M53.676 25.7095C53.676 25.7095 53.7514 28.3575 54.3883 28.2234C55.0328 28.1558 55.682 28.1459 56.3283 28.1941C56.4794 28.1985 56.629 28.1618 56.761 28.088C56.8931 28.0143 57.0027 27.9061 57.0783 27.7751L58.3352 25.6801L53.676 25.7095Z" fill="#FFB373"/>
<path d="M53.676 25.7095L55.5489 24.5447H57.0573C57.4946 24.545 57.9253 24.6511 58.3128 24.8539C58.7002 25.0567 59.0328 25.3503 59.2822 25.7095H53.676Z" fill="#FFB373"/>
</g>
<defs>
<clipPath id="clip0_34_750">
<rect width="164" height="150" fill="white"/>
</clipPath>
</defs>
</svg>
