<svg width="156" height="150" viewBox="0 0 156 150" fill="none" xmlns="http://www.w3.org/2000/svg">
<g clip-path="url(#clip0_34_2255)">
<path d="M67.2571 105.746C82.108 100.896 91.6364 97.223 102.482 97.0952C102.482 97.0952 117.929 99.0852 124.321 97.0952C143.011 91.2656 144.639 70.0355 134.548 54.3622C124.099 38.1307 105.294 42.7628 105.294 42.7628C82.7855 46.8963 67.7685 42.3366 59.9148 38.5398C53.6208 35.5057 46.0142 36.6349 41.1648 41.6548C40.0724 42.7381 39.2177 44.037 38.6549 45.4687C31.7472 64.3849 39.7032 82.8707 42.5412 94.1591C43.5895 98.3437 52.402 110.595 67.2571 105.746Z" stroke="#263238" stroke-linecap="round" stroke-linejoin="round" stroke-dasharray="2 2"/>
<path d="M74.135 27.4943C73.5341 34.5767 72.9034 41.7571 73.0611 48.8352C73.4318 65.983 75.1534 83.0753 76.2443 100.185C76.8963 110.382 78.912 121.159 76.858 131.293C74.9361 140.791 67.3722 148.632 57.4645 149.335C46.5597 150.111 38.6804 139.93 39.8693 129.69C40.76 122.02 45.3708 114.933 45.6435 107.203C46.0057 96.7969 33.8438 98.1392 25.9389 91.4361C16.6364 83.5611 7.45315 73.0909 4.75144 60.8864C3.97161 57.3793 3.77133 53.642 5.07104 50.2713C10.956 35.0497 35.9361 31.2273 45.6435 44.1648C55.6449 57.5028 51.7031 76.9006 68.071 78.7202C84.4389 80.5398 100.504 73.5682 116.267 69.6264C132.03 65.6847 149.608 75.3878 146.881 95.9957C144.153 116.604 118.692 116.024 106.871 101.757C95.0497 87.4901 100.504 58.4105 102.929 46.875C104.263 40.5511 107.689 34.875 110.693 29.233C113.058 24.7841 116.041 20.1392 115.274 14.8849C113.011 -0.605112 87.1492 -4.9858 79.287 8.3821C79.2784 8.39915 75.2855 13.892 74.135 27.4943Z" stroke="#263238" stroke-linecap="round" stroke-linejoin="round" stroke-dasharray="2 2"/>
<path d="M77.5312 89.8125C73.5462 89.8125 69.7244 88.2294 66.9066 85.4116C64.0887 82.5938 62.5057 78.7719 62.5057 74.7869C62.5057 70.8019 64.0887 66.9801 66.9066 64.1622C69.7244 61.3444 73.5462 59.7614 77.5312 59.7614C81.5163 59.7614 85.3381 61.3444 88.1559 64.1622C90.9738 66.9801 92.5568 70.8019 92.5568 74.7869C92.5568 78.7719 90.9738 82.5938 88.1559 85.4116C85.3381 88.2294 81.5163 89.8125 77.5312 89.8125Z" fill="#263238" stroke="#263238" stroke-miterlimit="10"/>
<path d="M75.1492 83.8679H78.8097V74.7102H81.3665L81.635 71.642H78.8097V69.8864C78.8097 69.1662 78.9546 68.8807 79.6619 68.8807H81.6392V65.6974H79.108C76.385 65.6974 75.1577 66.8949 75.1577 69.1875V71.6335H73.2571V74.7401H75.1577L75.1492 83.8679Z" fill="#E1C5AC"/>
<path d="M83.4204 62.4716C84.8292 63.1442 86.1121 64.0537 87.2131 65.1605" stroke="white" stroke-width="0.75" stroke-linecap="round" stroke-linejoin="round"/>
<path d="M69.0724 64.0739C69.3835 63.8267 69.7117 63.5923 70.0526 63.3665C71.87 62.1746 73.946 61.4344 76.1075 61.2076C78.269 60.9808 80.4534 61.2739 82.4787 62.0625" stroke="white" stroke-width="0.75" stroke-linecap="round" stroke-linejoin="round"/>
<path d="M75.8693 88.3338C73.9006 88.0923 72.0083 87.4242 70.3244 86.3762C68.6404 85.3281 67.2054 83.9253 66.1193 82.2656C64.5844 79.9259 63.8065 77.1706 63.8912 74.3736C63.9758 71.5766 64.9188 68.8734 66.5923 66.6307" stroke="white" stroke-width="0.75" stroke-linecap="round" stroke-linejoin="round"/>
<path d="M80.9148 88.0142C80.0269 88.2486 79.1173 88.3914 78.2003 88.4404" stroke="white" stroke-width="0.75" stroke-linecap="round" stroke-linejoin="round"/>
<path d="M87.2131 65.1605C87.8605 65.8125 88.4428 66.5261 88.9517 67.2912C89.9358 68.7903 90.6145 70.4689 90.949 72.2307C91.2835 73.9924 91.2672 75.8029 90.901 77.5584C90.5349 79.3139 89.8261 80.9799 88.8152 82.4611C87.8043 83.9423 86.5112 85.2096 85.01 86.1904C84.0243 86.8346 82.9602 87.3501 81.8438 87.7244" stroke="white" stroke-width="0.75" stroke-linecap="round" stroke-linejoin="round"/>
<path d="M139.79 89.8125C135.805 89.8125 131.983 88.2294 129.165 85.4116C126.347 82.5938 124.764 78.7719 124.764 74.7869C124.764 70.8019 126.347 66.9801 129.165 64.1622C131.983 61.3444 135.805 59.7614 139.79 59.7614C143.775 59.7614 147.597 61.3444 150.414 64.1622C153.232 66.9801 154.815 70.8019 154.815 74.7869C154.815 78.7719 153.232 82.5938 150.414 85.4116C147.597 88.2294 143.775 89.8125 139.79 89.8125Z" fill="#263238" stroke="#263238" stroke-miterlimit="10"/>
<path d="M132.644 86.4076C131.313 85.5901 130.134 84.5492 129.158 83.3309" stroke="white" stroke-width="0.75" stroke-linecap="round" stroke-linejoin="round"/>
<path d="M147.081 86.3352C146.74 86.5483 146.391 86.7613 146.028 86.9361C144.095 87.9277 141.953 88.4432 139.781 88.4395C137.608 88.4358 135.468 87.913 133.538 86.9147" stroke="white" stroke-width="0.75" stroke-linecap="round" stroke-linejoin="round"/>
<path d="M142.905 61.4957C144.837 61.9438 146.648 62.8087 148.21 64.0299C149.773 65.2511 151.05 66.799 151.952 68.5653C153.229 71.0546 153.71 73.8765 153.329 76.6483C152.947 79.4201 151.723 82.0075 149.821 84.0597" stroke="white" stroke-width="0.75" stroke-linecap="round" stroke-linejoin="round"/>
<path d="M137.842 61.2741C138.751 61.1425 139.67 61.1039 140.587 61.1591" stroke="white" stroke-width="0.75" stroke-linecap="round" stroke-linejoin="round"/>
<path d="M129.158 83.331C128.582 82.6101 128.079 81.8335 127.658 81.0128C126.839 79.4179 126.342 77.6773 126.197 75.8904C126.051 74.1035 126.26 72.3054 126.81 70.5991C127.36 68.8928 128.241 67.3117 129.403 65.9463C130.565 64.581 131.985 63.4581 133.581 62.642C134.629 62.1052 135.742 61.7056 136.892 61.4531" stroke="white" stroke-width="0.75" stroke-linecap="round" stroke-linejoin="round"/>
<path d="M139.79 68.0326C141.993 68.0326 142.253 68.0326 143.122 68.0795C143.645 68.086 144.162 68.1826 144.652 68.365C145.007 68.5034 145.329 68.7138 145.598 68.983C145.867 69.2522 146.078 69.5743 146.216 69.9289C146.397 70.419 146.492 70.9365 146.497 71.4588C146.536 72.311 146.544 72.588 146.544 74.7869C146.544 76.9858 146.544 77.2457 146.497 78.115C146.492 78.6373 146.397 79.1548 146.216 79.6449C146.079 80.0006 145.87 80.3236 145.6 80.593C145.331 80.8625 145.008 81.0722 144.652 81.2088C144.162 81.3912 143.645 81.4878 143.122 81.4943C142.27 81.5326 141.993 81.5412 139.79 81.5412C137.587 81.5412 137.331 81.5412 136.462 81.4943C135.939 81.4878 135.422 81.3912 134.932 81.2088C134.575 81.076 134.252 80.8666 133.986 80.5951C133.721 80.3261 133.521 80.0015 133.398 79.6449C133.217 79.1548 133.122 78.6373 133.117 78.115C133.074 77.2628 133.065 76.9858 133.065 74.7869C133.065 72.588 133.065 72.3281 133.117 71.4588C133.122 70.9365 133.217 70.419 133.398 69.9289C133.529 69.5708 133.741 69.2473 134.016 68.9829C134.281 68.709 134.604 68.4979 134.962 68.365C135.451 68.1826 135.969 68.086 136.492 68.0795C137.344 68.0412 137.621 68.0326 139.82 68.0326M139.82 66.5497C137.582 66.5497 137.305 66.5497 136.411 66.5966C135.728 66.6111 135.052 66.7408 134.412 66.9801C133.863 67.1883 133.366 67.5125 132.955 67.9304C132.535 68.3422 132.21 68.8411 132.004 69.392C131.763 70.0313 131.633 70.7074 131.621 71.3906C131.578 72.2684 131.57 72.5497 131.57 74.7997C131.57 77.0497 131.57 77.3181 131.621 78.2088C131.633 78.8934 131.763 79.5708 132.004 80.2116C132.217 80.7581 132.54 81.2543 132.955 81.6689C133.369 82.0834 133.866 82.4071 134.412 82.6193C135.052 82.8586 135.728 82.9882 136.411 83.0028C137.293 83.0412 137.57 83.0497 139.82 83.0497C142.07 83.0497 142.338 83.0497 143.229 83.0028C143.912 82.9877 144.587 82.8581 145.227 82.6193C145.774 82.4071 146.27 82.0834 146.685 81.6689C147.099 81.2543 147.423 80.7581 147.635 80.2116C147.876 79.5708 148.006 78.8934 148.019 78.2088C148.061 77.3309 148.07 77.0497 148.07 74.7997C148.07 72.5497 148.07 72.2812 148.019 71.3906C148.006 70.7074 147.876 70.0313 147.635 69.392C147.429 68.8411 147.105 68.3422 146.685 67.9304C146.273 67.5125 145.776 67.1883 145.227 66.9801C144.587 66.7413 143.912 66.6116 143.229 66.5966C142.347 66.5582 142.065 66.5497 139.82 66.5497Z" fill="#E1C5AC"/>
<path d="M139.79 70.5554C138.954 70.5612 138.139 70.8144 137.447 71.283C136.755 71.7515 136.217 72.4144 135.902 73.1881C135.586 73.9618 135.506 74.8117 135.673 75.6306C135.84 76.4494 136.245 77.2006 136.838 77.7894C137.431 78.3782 138.185 78.7783 139.005 78.9392C139.825 79.1 140.674 79.0145 141.446 78.6934C142.217 78.3722 142.876 77.8299 143.34 77.1347C143.804 76.4395 144.051 75.6225 144.051 74.7869C144.051 73.6646 143.605 72.5883 142.812 71.7947C142.018 71.0012 140.942 70.5554 139.82 70.5554M139.79 77.5568C139.246 77.5568 138.715 77.3956 138.263 77.0936C137.811 76.7915 137.458 76.3623 137.25 75.86C137.042 75.3578 136.988 74.8051 137.094 74.272C137.2 73.7388 137.462 73.2491 137.846 72.8647C138.231 72.4803 138.72 72.2185 139.254 72.1124C139.787 72.0064 140.339 72.0608 140.842 72.2688C141.344 72.4769 141.773 72.8292 142.075 73.2812C142.377 73.7332 142.538 74.2646 142.538 74.8082C142.539 75.1693 142.468 75.527 142.33 75.8607C142.192 76.1944 141.99 76.4976 141.735 76.753C141.479 77.0083 141.176 77.2108 140.842 77.3487C140.509 77.4866 140.151 77.5573 139.79 77.5568Z" fill="#E1C5AC"/>
<path d="M145.189 70.3892C145.189 70.5847 145.131 70.7759 145.022 70.9385C144.914 71.101 144.759 71.2278 144.579 71.3026C144.398 71.3774 144.199 71.397 144.007 71.3589C143.816 71.3207 143.639 71.2265 143.501 71.0883C143.363 70.95 143.269 70.7739 143.231 70.5821C143.193 70.3903 143.212 70.1915 143.287 70.0109C143.362 69.8302 143.488 69.6758 143.651 69.5672C143.814 69.4586 144.005 69.4006 144.2 69.4006C144.463 69.4006 144.714 69.5047 144.899 69.6901C145.085 69.8755 145.189 70.127 145.189 70.3892Z" fill="#E1C5AC"/>
<path d="M77.5312 144.712C73.5462 144.712 69.7244 143.129 66.9066 140.311C64.0887 137.493 62.5057 133.671 62.5057 129.686C62.5057 125.701 64.0886 121.878 66.9063 119.06C69.724 116.241 73.5458 114.657 77.5312 114.656C81.5167 114.657 85.3385 116.241 88.1562 119.06C90.9739 121.878 92.5568 125.701 92.5568 129.686C92.5568 133.671 90.9738 137.493 88.1559 140.311C85.3381 143.129 81.5163 144.712 77.5312 144.712Z" fill="#263238" stroke="#263238" stroke-miterlimit="10"/>
<path d="M70.4531 118.01C71.7858 117.197 73.2492 116.62 74.7784 116.305" stroke="white" stroke-width="0.75" stroke-linecap="round" stroke-linejoin="round"/>
<path d="M63.9375 130.892C63.9034 130.496 63.8864 130.091 63.8864 129.686C63.8848 127.513 64.4025 125.371 65.3965 123.439C66.3906 121.506 67.832 119.839 69.6008 118.577" stroke="white" stroke-width="0.75" stroke-linecap="round" stroke-linejoin="round"/>
<path d="M87.946 138.494C86.6673 140.01 85.0725 141.228 83.2735 142.063C81.4744 142.898 79.5145 143.329 77.5312 143.327C74.7349 143.327 72.0058 142.469 69.7127 140.869C67.4195 139.268 65.6729 137.003 64.7088 134.378" stroke="white" stroke-width="0.75" stroke-linecap="round" stroke-linejoin="round"/>
<path d="M90.4517 134.101C90.1544 134.968 89.7703 135.803 89.3054 136.594" stroke="white" stroke-width="0.75" stroke-linecap="round" stroke-linejoin="round"/>
<path d="M74.7784 116.335C75.6843 116.15 76.6066 116.057 77.5312 116.058C81.1478 116.058 84.6163 117.495 87.1736 120.052C89.7309 122.61 91.1676 126.078 91.1676 129.695C91.168 130.873 91.0162 132.046 90.7159 133.185" stroke="white" stroke-width="0.75" stroke-linecap="round" stroke-linejoin="round"/>
<path fill-rule="evenodd" clip-rule="evenodd" d="M86.2372 134.097C86.0585 134.003 85.8678 133.934 85.6704 133.892C84.7446 133.571 83.9379 132.976 83.3565 132.188C83.023 131.769 82.7557 131.302 82.5639 130.803C82.5233 130.708 82.5049 130.606 82.5101 130.503C82.5153 130.4 82.5439 130.3 82.5937 130.21C82.8037 129.967 83.0809 129.79 83.3906 129.703C83.7826 129.59 84.1489 129.402 84.4687 129.149C84.5309 129.092 84.5828 129.024 84.6222 128.949C84.6338 128.924 84.6424 128.899 84.6477 128.872C84.6727 128.779 84.6652 128.68 84.6264 128.591C84.5416 128.436 84.4106 128.31 84.2514 128.233C84.154 128.177 84.0456 128.143 83.9337 128.134C83.8218 128.124 83.7092 128.139 83.6037 128.178C83.4175 128.246 83.2267 128.302 83.0327 128.344C82.8199 128.396 82.5977 128.396 82.3849 128.344C82.3849 128.318 82.3849 128.267 82.3849 128.199C82.3849 127.807 82.4062 127.406 82.4105 126.984C82.4507 126.334 82.4335 125.681 82.3594 125.033C82.1267 123.925 81.4707 122.953 80.5312 122.322C79.8682 121.865 79.0967 121.591 78.294 121.526C78.0213 121.5 77.7571 121.492 77.4886 121.492C76.3912 121.471 75.3175 121.813 74.4332 122.463C73.7808 122.975 73.2678 123.644 72.9418 124.406C72.6893 125.17 72.6065 125.98 72.6989 126.78C72.7494 127.298 72.7623 127.819 72.7372 128.34C72.7382 128.351 72.7382 128.362 72.7372 128.374C72.4834 128.418 72.2239 128.418 71.9702 128.374C71.7912 128.344 71.5994 128.271 71.3821 128.212C71.2833 128.191 71.1812 128.191 71.0826 128.213C70.9841 128.235 70.8915 128.278 70.8111 128.34C70.7236 128.385 70.649 128.452 70.5939 128.534C70.5388 128.616 70.5051 128.71 70.4957 128.808C70.4936 128.824 70.4936 128.84 70.4957 128.855C70.5239 128.98 70.5928 129.093 70.6918 129.175C70.777 129.243 70.8494 129.29 70.892 129.324C71.2735 129.543 71.6779 129.718 72.098 129.848C72.2202 129.887 72.332 129.954 72.425 130.042C72.518 130.131 72.5897 130.239 72.6349 130.359C72.67 130.682 72.5965 131.008 72.4261 131.284C71.9976 132.122 71.368 132.841 70.5937 133.376C70.1845 133.656 69.7305 133.863 69.2514 133.99C69.064 134.022 68.8944 134.12 68.7741 134.267L68.7486 134.322C68.7318 134.387 68.7304 134.454 68.7445 134.52C68.7585 134.585 68.7877 134.646 68.8295 134.697C68.8841 134.764 68.9524 134.818 69.0298 134.855C69.4224 135.055 69.8413 135.199 70.2741 135.281C70.5382 135.32 70.7978 135.385 71.0497 135.473C71.0497 135.473 71.0795 135.563 71.1307 135.686C71.2031 135.903 71.2372 136.163 71.3182 136.436C71.3306 136.473 71.3524 136.507 71.3815 136.533C71.4107 136.559 71.4461 136.577 71.4844 136.585C71.5831 136.614 71.6891 136.607 71.7827 136.564H71.8082C72.4499 136.407 73.1169 136.382 73.7685 136.491C74.4233 136.741 75.0423 137.077 75.6094 137.489C76.0434 137.794 76.5506 137.98 77.0795 138.026C77.4944 138.043 77.91 138.034 78.3238 138C78.6718 137.963 79.0068 137.848 79.304 137.663C79.9687 137.284 80.5568 136.832 81.2045 136.547C81.454 136.485 81.7103 136.455 81.9673 136.457C82.5055 136.442 83.0442 136.469 83.5781 136.538H83.6292C83.7007 136.528 83.7658 136.491 83.8125 136.436C83.8423 136.404 83.8629 136.364 83.8721 136.321C83.8721 136.27 83.902 136.244 83.8721 136.287C83.8745 136.273 83.8745 136.258 83.8721 136.244C83.9226 135.963 84.0268 135.694 84.179 135.452C84.2733 135.378 84.3917 135.341 84.5114 135.349H84.5412C84.9795 135.279 85.4084 135.159 85.8196 134.991C86.0223 134.926 86.2024 134.805 86.3395 134.642C86.3689 134.601 86.3894 134.555 86.3998 134.506C86.4102 134.457 86.4101 134.406 86.3997 134.357C86.3892 134.308 86.3686 134.262 86.3392 134.222C86.3097 134.181 86.2721 134.147 86.2287 134.122L86.2372 134.097Z" fill="#E1C5AC"/>
<path d="M16.2102 89.8125C14.236 89.8142 12.2807 89.4268 10.4563 88.6724C8.6318 87.9181 6.97389 86.8116 5.57728 85.4161C4.18067 84.0207 3.07275 82.3637 2.31685 80.5399C1.56095 78.7161 1.17187 76.7612 1.17188 74.7869C1.17187 72.8127 1.56095 70.8578 2.31685 69.0339C3.07275 67.2101 4.18067 65.5531 5.57728 64.1577C6.97389 62.7623 8.6318 61.6558 10.4563 60.9014C12.2807 60.1471 14.236 59.7597 16.2102 59.7614C20.1953 59.7614 24.0171 61.3444 26.8349 64.1622C29.6528 66.9801 31.2358 70.8019 31.2358 74.7869C31.2358 78.772 29.6528 82.5938 26.8349 85.4116C24.0171 88.2294 20.1953 89.8125 16.2102 89.8125Z" fill="#263238" stroke="#263238" stroke-miterlimit="10"/>
<path d="M9.11932 63.1151C10.4517 62.3012 11.9152 61.7245 13.4446 61.4105" stroke="white" stroke-width="0.75" stroke-linecap="round" stroke-linejoin="round"/>
<path d="M2.59942 75.9972C2.56533 75.5966 2.54828 75.196 2.54828 74.7869C2.54668 72.6138 3.06446 70.4718 4.05848 68.5393C5.0525 66.6069 6.49397 64.94 8.26277 63.6776" stroke="white" stroke-width="0.75" stroke-linecap="round" stroke-linejoin="round"/>
<path d="M26.6122 83.6079C25.333 85.1198 23.7398 86.3348 21.9434 87.1686C20.1471 88.0024 18.1907 88.4349 16.2102 88.436C13.4132 88.4395 10.6827 87.5828 8.38895 85.982C6.09524 84.3812 4.34928 82.1138 3.38779 79.4872" stroke="white" stroke-width="0.75" stroke-linecap="round" stroke-linejoin="round"/>
<path d="M29.1136 79.2017C28.819 80.0715 28.4348 80.9083 27.9673 81.6988" stroke="white" stroke-width="0.75" stroke-linecap="round" stroke-linejoin="round"/>
<path d="M13.4446 61.4148C14.3505 61.2293 15.2728 61.1365 16.1975 61.1378C19.814 61.1378 23.2825 62.5745 25.8398 65.1318C28.3971 67.6891 29.8338 71.1575 29.8338 74.7741C29.8346 75.9521 29.6828 77.1252 29.3821 78.2642" stroke="white" stroke-width="0.75" stroke-linecap="round" stroke-linejoin="round"/>
<path d="M8.19034 79.8153C9.69214 80.7825 11.441 81.2959 13.2273 81.294C19.3253 81.294 22.7685 76.142 22.5639 71.5227C23.2054 71.0552 23.7594 70.4782 24.2003 69.8182C23.6012 70.0816 22.9665 70.2554 22.3168 70.3338C23.0022 69.9246 23.5145 69.279 23.7571 68.5185C23.1122 68.8992 22.4077 69.1686 21.6733 69.3153C21.1794 68.7882 20.5255 68.4386 19.8129 68.3205C19.1002 68.2024 18.3685 68.3224 17.731 68.662C17.0935 69.0017 16.5856 69.542 16.2861 70.1993C15.9865 70.8566 15.9119 71.5943 16.0739 72.2983C14.768 72.233 13.4905 71.8934 12.3245 71.3017C11.1586 70.7099 10.1304 69.8792 9.30682 68.8636C8.88685 69.5873 8.75797 70.4436 8.94633 71.2587C9.13469 72.0739 9.62617 72.7868 10.321 73.2528C9.7983 73.232 9.28823 73.0859 8.8338 72.8267C8.82356 73.5924 9.08111 74.3377 9.56196 74.9337C10.0428 75.5297 10.7167 75.939 11.4673 76.0909C10.9835 76.2209 10.4765 76.2398 9.98437 76.1463C10.1941 76.7989 10.6026 77.3695 11.1528 77.7783C11.703 78.1872 12.3672 78.4137 13.0526 78.4261C12.3735 78.9665 11.5944 79.3674 10.76 79.6058C9.92563 79.8442 9.05235 79.9154 8.19034 79.8153Z" fill="#E1C5AC"/>
<path d="M77.5312 31.4276C73.5462 31.4276 69.7244 29.8445 66.9066 27.0267C64.0887 24.2088 62.5057 20.387 62.5057 16.402C62.5057 12.417 64.0887 8.59516 66.9066 5.77732C69.7244 2.95948 73.5462 1.37643 77.5312 1.37643C81.5163 1.37643 85.3381 2.95948 88.1559 5.77732C90.9738 8.59516 92.5568 12.417 92.5568 16.402C92.5568 20.387 90.9738 24.2088 88.1559 27.0267C85.3381 29.8445 81.5163 31.4276 77.5312 31.4276Z" fill="#263238" stroke="#263238" stroke-miterlimit="10"/>
<path fill-rule="evenodd" clip-rule="evenodd" d="M86.1903 16.0355C86.2095 13.8882 85.3749 11.8211 83.8701 10.2891C82.3653 8.75715 80.3135 7.88569 78.1662 7.86647C76.0188 7.84726 73.9518 8.68187 72.4198 10.1867C70.8878 11.6915 70.0164 13.7433 69.9972 15.8906C69.9972 16.0057 69.9972 16.125 69.9972 16.2401C69.9965 17.7036 70.3974 19.1392 71.1562 20.3906L69.7116 24.7159L74.1946 23.2883C75.4228 23.9643 76.8055 24.3097 78.2072 24.2908C79.609 24.2719 80.9819 23.8894 82.1914 23.1807C83.401 22.472 84.4058 21.4613 85.1075 20.2477C85.8093 19.034 86.1838 17.659 86.1946 16.2571C86.1946 16.1932 86.1946 16.1037 86.1903 16.0355ZM78.0937 22.9943C76.7634 22.9976 75.4617 22.6077 74.3523 21.8736L71.7358 22.7259L72.5881 20.2159C71.7515 19.066 71.3037 17.6791 71.3097 16.2571C71.3097 16.0398 71.3097 15.831 71.3437 15.6051C71.546 13.9404 72.3547 12.4086 73.6152 11.3025C74.8757 10.1964 76.4996 9.59371 78.1765 9.60953C79.8534 9.62535 81.4656 10.2586 82.705 11.3883C83.9444 12.5179 84.7241 14.0647 84.8949 15.733C84.9119 15.9091 84.9204 16.0838 84.9204 16.2571C84.9114 18.0567 84.1881 19.7792 82.9096 21.0457C81.6311 22.3123 79.9019 23.0193 78.1023 23.0114L78.0937 22.9943Z" fill="#E1C5AC"/>
<path fill-rule="evenodd" clip-rule="evenodd" d="M81.8096 17.8636C81.6094 17.7656 80.6378 17.2884 80.4545 17.2244C80.2713 17.1605 80.1392 17.1264 80.0284 17.3224C79.9176 17.5185 79.5128 17.9617 79.402 18.0895C79.2912 18.2173 79.1676 18.2386 78.9758 18.1406C78.391 17.9104 77.8514 17.5786 77.3821 17.1605C76.9472 16.7661 76.575 16.3077 76.2784 15.8011C76.1676 15.6051 76.2784 15.4986 76.3679 15.4006C76.4574 15.3026 76.5639 15.1705 76.6662 15.0554L76.7386 14.9617C76.7812 14.8892 76.8153 14.821 76.8622 14.7273C76.8909 14.6743 76.906 14.615 76.906 14.5547C76.906 14.4944 76.8909 14.4351 76.8622 14.3821C76.8111 14.2841 76.4361 13.3125 76.2486 12.9205C76.0611 12.5284 75.9162 12.5923 75.8224 12.5923C75.7287 12.5923 75.5753 12.5923 75.4432 12.5923C75.3421 12.5943 75.2425 12.6173 75.1508 12.6599C75.0591 12.7024 74.9773 12.7636 74.9105 12.8395C74.6878 13.0501 74.5115 13.3047 74.3926 13.5871C74.2738 13.8696 74.215 14.1737 74.2202 14.4801C74.2219 14.7083 74.2563 14.935 74.3224 15.1534C74.4766 15.6458 74.7161 16.1074 75.0298 16.5171C75.1278 16.6449 76.402 18.6989 78.4389 19.5C80.4758 20.3011 80.4545 20.0199 80.821 19.9858C81.0973 19.9336 81.3594 19.8235 81.5901 19.6626C81.8207 19.5017 82.0146 19.2938 82.1591 19.0526C82.2902 18.7586 82.3303 18.432 82.2741 18.1151C82.142 18.0128 82.0099 17.9617 81.8096 17.8636Z" fill="#E1C5AC"/>
<path d="M70.4531 4.72588C71.7858 3.91255 73.2492 3.33586 74.7784 3.02133" stroke="white" stroke-width="0.75" stroke-linecap="round" stroke-linejoin="round"/>
<path d="M63.9375 17.608C63.9034 17.2117 63.8864 16.8068 63.8864 16.402C63.8848 14.2289 64.4025 12.0869 65.3965 10.1544C66.3906 8.22197 67.832 6.55508 69.6008 5.29263" stroke="white" stroke-width="0.75" stroke-linecap="round" stroke-linejoin="round"/>
<path d="M87.946 25.223C86.6665 26.7379 85.0715 27.9548 83.2725 28.7888C81.4736 29.6228 79.5141 30.0536 77.5312 30.0512C74.7349 30.0516 72.0058 29.1937 69.7127 27.5933C67.4195 25.9929 65.6729 23.7272 64.7088 21.1023" stroke="white" stroke-width="0.75" stroke-linecap="round" stroke-linejoin="round"/>
<path d="M90.4517 20.8168C90.1536 21.6852 89.7696 22.5217 89.3054 23.3139" stroke="white" stroke-width="0.75" stroke-linecap="round" stroke-linejoin="round"/>
<path d="M74.7784 3.02984C75.6843 2.84442 76.6066 2.75161 77.5312 2.75285C81.1478 2.75285 84.6163 4.18953 87.1736 6.74685C89.7309 9.30416 91.1676 12.7726 91.1676 16.3892C91.168 17.5672 91.0162 18.7402 90.7159 19.8793" stroke="white" stroke-width="0.75" stroke-linecap="round" stroke-linejoin="round"/>
<path d="M108.763 118.875C118.631 118.875 126.631 110.875 126.631 101.007C126.631 91.1389 118.631 83.1392 108.763 83.1392C98.8946 83.1392 90.8949 91.1389 90.8949 101.007C90.8949 110.875 98.8946 118.875 108.763 118.875Z" fill="#E1C5AC" stroke="#263238" stroke-miterlimit="10"/>
<path opacity="0.3" d="M108.763 118.875C118.631 118.875 126.631 110.875 126.631 101.007C126.631 91.1389 118.631 83.1392 108.763 83.1392C98.8946 83.1392 90.8949 91.1389 90.8949 101.007C90.8949 110.875 98.8946 118.875 108.763 118.875Z" fill="white" stroke="#263238" stroke-miterlimit="10"/>
<path d="M108.763 83.1392C108.763 83.1392 99.7244 82.1591 98.2841 86.6293C96.8437 91.0995 102.92 90.3068 101.962 92.3821C101.003 94.4574 97.0057 97.1591 98.6037 100.21C100.202 103.261 103.078 106.602 99.8821 105.486C96.6861 104.369 95.8892 104.045 96.5284 107.561C97.1676 111.077 100.521 112.036 105.955 111.554C111.388 111.072 110.906 113.634 113.94 113.953C116.974 114.273 120.013 112.513 120.013 108.038C120.013 103.564 116.339 104.527 119.693 102.29C123.047 100.053 122.412 94.2997 121.453 92.5441C120.494 90.7884 118.577 91.5853 118.577 89.348C118.577 87.1108 113.966 82.8409 108.763 83.1392Z" fill="#263238" stroke="#263238" stroke-miterlimit="10"/>
<path d="M103.79 85.2273C103.79 85.2273 100.445 84.7798 100.555 86.8977C100.666 89.0156 106.47 93.1449 111.938 93.26C117.405 93.375 117.959 90.5796 117.179 90.0213" stroke="white" stroke-width="0.75" stroke-linecap="round" stroke-linejoin="round"/>
<path d="M107.25 87C107.25 87 104.574 87.3324 104.906 89.1307C105.239 90.929 106.913 91.8068 109.483 92.8125" stroke="white" stroke-width="0.75" stroke-linecap="round" stroke-linejoin="round"/>
<path d="M120.635 97.9304C120.635 97.9304 120.413 100.722 116.957 102.507C113.501 104.293 110.386 106.96 113.369 108.307C116.352 109.653 118.057 111.205 116.94 111.541" stroke="white" stroke-width="0.75" stroke-linecap="round" stroke-linejoin="round"/>
<path d="M103.568 106.185C103.568 106.185 102.23 109.308 100.223 108.742C98.2159 108.175 97.5426 106.611 98.8849 106.611C100.227 106.611 100.334 107.28 100.334 107.28" stroke="white" stroke-width="0.75" stroke-linecap="round" stroke-linejoin="round"/>
<path d="M114.222 93.4006C114.222 93.4006 116.962 93.358 116.514 96.0341C116.067 98.7103 113.501 98.9361 112.832 100.943" stroke="white" stroke-width="0.75" stroke-linecap="round" stroke-linejoin="round"/>
<path d="M108.763 118.892C112.773 118.897 116.667 117.545 119.813 115.057C118.56 114.132 116.327 112.5 115.027 111.648C113.148 110.395 110.642 106.496 107.297 107.19C104.612 107.753 97.4276 110.847 94.6918 112.048C96.3633 114.183 98.4992 115.909 100.937 117.094C103.375 118.28 106.052 118.895 108.763 118.892Z" fill="white" stroke="#263238" stroke-miterlimit="10"/>
<path d="M106.751 106.602C106.751 106.602 101.8 108.038 101.161 112.193C100.521 116.348 105.234 113.352 105.234 113.352C105.234 113.352 107.71 116.987 109.947 115.871C112.185 114.754 112.504 110.915 111.226 108.358C109.947 105.801 106.751 106.602 106.751 106.602Z" fill="white" stroke="#263238" stroke-miterlimit="10"/>
<path d="M106.619 103.551C106.646 104.912 106.46 106.27 106.07 107.574C105.443 109.504 103.402 112.163 105.217 113.357C107.033 114.55 109.359 110.753 109.965 107.565C110.57 104.378 111.009 100.568 111.009 100.568L106.619 103.551Z" fill="white"/>
<mask id="mask0_34_2255" style="mask-type:luminance" maskUnits="userSpaceOnUse" x="104" y="100" width="8" height="14">
<path d="M106.619 103.551C106.646 104.912 106.46 106.27 106.07 107.574C105.443 109.504 103.402 112.163 105.217 113.357C107.033 114.55 109.359 110.753 109.965 107.565C110.57 104.378 111.009 100.568 111.009 100.568L106.619 103.551Z" fill="white"/>
</mask>
<g mask="url(#mask0_34_2255)">
<g style="mix-blend-mode:multiply" opacity="0.5">
<path d="M106.198 107.148C106.783 107.36 107.39 107.503 108.009 107.574C108.563 107.638 108.784 107.518 108.861 107.378C108.793 108.175 108.533 110.361 107.625 111.972C107.348 112.466 107.122 112.884 106.943 113.25C108.29 112.342 109.547 109.811 109.973 107.578C110.578 104.395 111 100.594 111 100.594L106.611 103.577C106.632 104.78 106.493 105.981 106.198 107.148Z" fill="#E1C5AC"/>
</g>
</g>
<path d="M106.619 103.551C106.646 104.912 106.46 106.27 106.07 107.574C105.443 109.504 103.402 112.163 105.217 113.357C107.033 114.55 109.359 110.753 109.965 107.565C110.57 104.378 111.009 100.568 111.009 100.568L106.619 103.551Z" stroke="#263238" stroke-miterlimit="10"/>
<path d="M103.939 91.1932C103.939 91.1932 102.405 97.5852 102.405 99.9673C102.405 102.349 104.595 105.264 107.374 105.507C110.919 105.793 112.223 101.028 112.99 98.3139C113.655 95.9574 114.107 93.9204 114.217 93.4176C108.827 95.4545 103.939 91.1932 103.939 91.1932Z" fill="white"/>
<mask id="mask1_34_2255" style="mask-type:luminance" maskUnits="userSpaceOnUse" x="102" y="91" width="13" height="15">
<path d="M103.939 91.1932C103.939 91.1932 102.405 97.5852 102.405 99.9673C102.405 102.349 104.595 105.264 107.374 105.507C110.919 105.793 112.223 101.028 112.99 98.3139C113.655 95.9574 114.107 93.9204 114.217 93.4176C108.827 95.4545 103.939 91.1932 103.939 91.1932Z" fill="white"/>
</mask>
<g mask="url(#mask1_34_2255)">
<g style="mix-blend-mode:multiply" opacity="0.5">
<path d="M114.222 93.4006C113.686 93.6053 113.13 93.7553 112.564 93.848C112.313 95.4716 111.541 99.4645 109.773 101.919C108.273 104.003 106.666 104.757 105.754 105.03C106.262 105.283 106.813 105.439 107.378 105.49C110.923 105.776 112.227 101.011 112.994 98.2969" fill="#E1C5AC"/>
</g>
</g>
<path d="M103.939 91.1932C103.939 91.1932 102.405 97.5852 102.405 99.9673C102.405 102.349 104.595 105.264 107.374 105.507C110.919 105.793 112.223 101.028 112.99 98.3139C113.655 95.9574 114.107 93.9204 114.217 93.4176C108.827 95.4545 103.939 91.1932 103.939 91.1932Z" stroke="#263238" stroke-miterlimit="10"/>
<path d="M106.862 95.7188C106.667 96.4141 106.361 97.0732 105.955 97.6705C105.401 98.3651 104.216 97.7386 104.565 98.1563C104.759 98.4009 105 98.6029 105.275 98.7496C105.55 98.8963 105.853 98.9844 106.163 99.0085" stroke="#263238" stroke-linecap="round" stroke-linejoin="round"/>
<path d="M104.182 100.33C104.182 100.33 105.226 101.864 107.382 101.097" stroke="#263238" stroke-linecap="round" stroke-linejoin="round"/>
<path d="M105.848 95.2244C105.784 95.6037 105.563 95.885 105.354 95.8466C105.145 95.8083 105.026 95.4759 105.09 95.0966C105.153 94.7174 105.375 94.4404 105.584 94.4745C105.793 94.5085 105.912 94.8452 105.848 95.2244Z" fill="#263238"/>
<path d="M109.359 96.2259C109.266 96.6009 109.027 96.8651 108.822 96.8139C108.618 96.7628 108.524 96.4219 108.614 96.0469C108.703 95.6719 108.942 95.412 109.151 95.4588C109.359 95.5057 109.449 95.8551 109.359 96.2259Z" fill="#263238"/>
<path d="M104.42 93.3495C104.42 93.3495 104.979 92.0284 106.649 92.7955" stroke="#263238" stroke-linecap="round" stroke-linejoin="round"/>
<path d="M108.592 93.9162C108.592 93.9162 110.126 93.4304 110.544 94.9603" stroke="#263238" stroke-linecap="round" stroke-linejoin="round"/>
<path d="M46.5639 118.875C56.4321 118.875 64.4318 110.875 64.4318 101.007C64.4318 91.1389 56.4321 83.1392 46.5639 83.1392C36.6958 83.1392 28.696 91.1389 28.696 101.007C28.696 110.875 36.6958 118.875 46.5639 118.875Z" fill="#E1C5AC" stroke="#263238" stroke-miterlimit="10"/>
<path opacity="0.3" d="M46.5639 118.875C56.4321 118.875 64.4318 110.875 64.4318 101.007C64.4318 91.1389 56.4321 83.1392 46.5639 83.1392C36.6958 83.1392 28.696 91.1389 28.696 101.007C28.696 110.875 36.6958 118.875 46.5639 118.875Z" fill="white" stroke="#263238" stroke-miterlimit="10"/>
<path d="M35.3864 114.929C38.8904 117.752 43.3312 119.147 47.82 118.836C52.3087 118.524 56.5144 116.529 59.5952 113.25C57.5838 110.659 53.4631 106.219 48.8779 106.219C43.7898 106.219 37.7472 112.291 35.3864 114.929Z" fill="white" stroke="#263238" stroke-miterlimit="10"/>
<path d="M44.5867 104.898C44.5867 104.898 41.5568 105.243 41.2969 107.582C41.037 109.922 42.8523 113.817 43.027 114.247C43.2017 114.678 47.0966 110.787 48.5668 110.787C50.037 110.787 53.8466 112.862 53.8466 112.862C53.8466 112.862 52.6364 108.013 50.4716 106.193C48.3068 104.374 45.1875 104.203 44.5867 104.898Z" fill="white" stroke="#263238" stroke-miterlimit="10"/>
<path opacity="0.5" d="M40.6023 96.3069C40.6023 96.3069 39.3026 95.0071 38.6122 96.0469C37.9219 97.0867 38.5228 98.2969 39.4645 99.0767C40.4063 99.8566 41.8892 99.929 41.8892 99.3367C41.8892 98.7443 40.6023 96.3069 40.6023 96.3069Z" fill="#E1C5AC" stroke="#263238" stroke-miterlimit="10"/>
<path d="M40.6023 96.3069C40.6023 96.3069 39.3026 95.0071 38.6122 96.0469C37.9219 97.0867 38.5228 98.2969 39.4645 99.0767C40.4063 99.8566 41.8892 99.929 41.8892 99.3367C41.8892 98.7443 40.6023 96.3069 40.6023 96.3069Z" stroke="#263238" stroke-miterlimit="10"/>
<path d="M51.7756 93.2941C51.7756 93.2941 52.3807 91.7344 53.2458 93.3793C54.1108 95.0242 52.4659 96.4944 52.4659 96.4944L51.7756 93.2941Z" fill="white" stroke="#263238" stroke-miterlimit="10"/>
<path d="M41.902 99.3537C41.902 99.3537 43.6321 105.588 44.0668 107.753C44.5014 109.918 46.4915 113.037 47.9617 112.014C49.4318 110.991 49.3509 109.07 48.4816 107.425C47.9093 106.288 47.4456 105.099 47.0966 103.875L41.902 99.3537Z" fill="white"/>
<mask id="mask2_34_2255" style="mask-type:luminance" maskUnits="userSpaceOnUse" x="41" y="99" width="9" height="14">
<path d="M41.902 99.3537C41.902 99.3537 43.6321 105.588 44.0668 107.753C44.5014 109.918 46.4915 113.037 47.9617 112.014C49.4318 110.991 49.3509 109.07 48.4816 107.425C47.9093 106.288 47.4456 105.099 47.0966 103.875L41.902 99.3537Z" fill="white"/>
</mask>
<g mask="url(#mask2_34_2255)">
<g style="mix-blend-mode:multiply" opacity="0.5">
<path d="M48.4816 107.408C47.9093 106.271 47.4456 105.082 47.0966 103.858L41.902 99.3537C41.902 99.3537 43.321 104.467 43.9091 107.024C44.6602 107.611 45.5143 108.052 46.4276 108.324C47.2171 108.54 48.0593 108.444 48.7798 108.055C48.6942 107.833 48.5945 107.617 48.4816 107.408Z" fill="#E1C5AC"/>
</g>
</g>
<path d="M41.902 99.3537C41.902 99.3537 43.6321 105.588 44.0668 107.753C44.5014 109.918 46.4915 113.037 47.9617 112.014C49.4318 110.991 49.3509 109.07 48.4816 107.425C47.9093 106.288 47.4456 105.099 47.0966 103.875L41.902 99.3537Z" stroke="#263238" stroke-miterlimit="10"/>
<path d="M38.7955 92.8594C38.7955 92.8594 42.8651 102.661 44.5995 104.898C46.3338 107.135 50.9915 107.322 52.9986 104.045C55.0057 100.768 52.7387 96.3409 52.3935 94.3466C52.0483 92.3523 51.1151 89.0668 51.6989 88.4617C52.2827 87.8566 54.7287 87.4219 53.7784 85.8622C52.8281 84.3026 51.4389 85.0824 51.2685 83.9574C51.098 82.8324 51.9588 80.0583 48.7543 79.6279C45.5497 79.1975 39.9205 83.0029 37.6747 85.9475C35.429 88.8921 34.7131 91.5597 38.7955 92.8594Z" fill="#263238" stroke="#263238" stroke-miterlimit="10"/>
<path d="M40.0739 89.9148C40.0739 89.9148 37.4063 89.7145 38.7444 87.1492C40.0824 84.5838 49.01 81.1279 49.1208 83.0242C49.2316 84.9205 47.2245 85.4787 47.2245 85.4787" stroke="white" stroke-width="0.75" stroke-linecap="round" stroke-linejoin="round"/>
<path d="M43.662 87.4858C43.662 87.4858 41.6549 87.0384 42.3239 85.5895C42.9929 84.1406 47.902 83.4588 47.0114 84.3622C46.4834 84.8914 45.882 85.3421 45.2259 85.7003" stroke="white" stroke-width="0.75" stroke-linecap="round" stroke-linejoin="round"/>
<path d="M50.1264 98.7486C50.1264 98.7486 48.6563 101.084 46.3168 99.9588" stroke="white" stroke-width="0.75" stroke-linecap="round" stroke-linejoin="round"/>
<path d="M52.3807 94.3296C52.0568 92.4674 51.2003 89.4631 51.5881 88.5896C51.3281 87.9631 50.4333 86.5015 47.7912 86.3651C44.4119 86.1904 40.777 88.0952 40.0824 89.9148C39.3878 91.7344 41.0369 90.7671 41.6421 92.0796C42.2472 93.3921 40.6875 94.939 41.0369 95.8893C41.3864 96.8395 43.027 100.577 43.027 100.577C43.2869 99.537 47.1861 97.8026 47.1861 97.8026C47.75 97.9516 48.3339 98.0105 48.9162 97.9773C49.696 97.8921 49.2614 97.1975 49.2614 97.1975L53.2543 97.4361C52.9134 96.179 52.5085 95.0839 52.3807 94.3296Z" fill="white"/>
<mask id="mask3_34_2255" style="mask-type:luminance" maskUnits="userSpaceOnUse" x="39" y="86" width="15" height="15">
<path d="M52.3807 94.3296C52.0568 92.4674 51.2003 89.4631 51.5881 88.5896C51.3281 87.9631 50.4333 86.5015 47.7912 86.3651C44.4119 86.1904 40.777 88.0952 40.0824 89.9148C39.3878 91.7344 41.0369 90.7671 41.6421 92.0796C42.2472 93.3921 40.6875 94.939 41.0369 95.8893C41.3864 96.8395 43.027 100.577 43.027 100.577C43.2869 99.537 47.1861 97.8026 47.1861 97.8026C47.75 97.9516 48.3339 98.0105 48.9162 97.9773C49.696 97.8921 49.2614 97.1975 49.2614 97.1975L53.2543 97.4361C52.9134 96.179 52.5085 95.0839 52.3807 94.3296Z" fill="white"/>
</mask>
<g mask="url(#mask3_34_2255)">
<g style="mix-blend-mode:multiply" opacity="0.5">
<path d="M43.1591 90.6094C42.9972 88.9049 41.8807 88.5682 41.1392 88.5384C40.6788 88.9051 40.3134 89.3772 40.0739 89.9148C39.3835 91.7344 41.0284 90.7671 41.6335 92.0796C42.2386 93.3921 40.679 94.939 41.0284 95.8892C41.3778 96.8395 43.0185 100.577 43.0185 100.577C43.1037 100.244 43.5554 99.8395 44.1349 99.4475C43.2827 98.233 42.2429 96.7543 41.6548 95.8978C40.5469 94.2571 43.4105 93.2515 43.1591 90.6094Z" fill="#E1C5AC"/>
</g>
</g>
<path d="M52.3807 94.3296C52.0568 92.4674 51.2003 89.4631 51.5881 88.5896C51.3281 87.9631 50.4333 86.5015 47.7912 86.3651C44.4119 86.1904 40.777 88.0952 40.0824 89.9148C39.3878 91.7344 41.0369 90.7671 41.6421 92.0796C42.2472 93.3921 40.6875 94.939 41.0369 95.8893C41.3864 96.8395 43.027 100.577 43.027 100.577C43.2869 99.537 47.1861 97.8026 47.1861 97.8026C47.75 97.9516 48.3339 98.0105 48.9162 97.9773C49.696 97.8921 49.2614 97.1975 49.2614 97.1975L53.2543 97.4361C52.9134 96.179 52.5085 95.0839 52.3807 94.3296Z" stroke="#263238" stroke-miterlimit="10"/>
<path d="M45.0426 93.912C45.1534 94.3935 45.0426 94.8324 44.8253 94.8836C44.608 94.9347 44.3182 94.5853 44.2117 94.0995C44.1051 93.6137 44.2117 93.179 44.429 93.1279C44.6463 93.0768 44.9361 93.4262 45.0426 93.912Z" fill="#263238"/>
<path d="M50.1989 92.8509C50.3097 93.3367 50.1989 93.7714 49.9816 93.8225C49.7642 93.8736 49.4745 93.5242 49.3637 93.0384C49.2529 92.5526 49.3637 92.1179 49.5852 92.0668C49.8068 92.0157 50.0881 92.3651 50.1989 92.8509Z" fill="#263238"/>
<path d="M43.027 91.6449C43.027 91.6449 43.3722 89.7401 45.3665 90.5199" stroke="#263238" stroke-linecap="round" stroke-linejoin="round"/>
<path d="M50.7273 89.6549C49.2528 88.7003 48.733 90.081 48.733 90.081C48.733 90.081 47.7997 91.1037 48.179 92.9915" stroke="#263238" stroke-linecap="round" stroke-linejoin="round"/>
<path d="M43.287 96.7543L45.7969 95.7188" stroke="#263238" stroke-width="0.5" stroke-linecap="round" stroke-linejoin="round"/>
<path d="M49.3509 94.9389L51.4262 94.7642" stroke="#263238" stroke-width="0.5" stroke-linecap="round" stroke-linejoin="round"/>
<path d="M112.941 62.7396C122.536 60.4309 128.442 50.7816 126.133 41.1873C123.824 31.593 114.175 25.6869 104.581 27.9956C94.9865 30.3043 89.0804 39.9536 91.3891 49.5479C93.6978 59.1422 103.347 65.0483 112.941 62.7396Z" fill="#E1C5AC" stroke="#263238" stroke-miterlimit="10"/>
<path opacity="0.3" d="M112.941 62.7396C122.536 60.4309 128.442 50.7816 126.133 41.1873C123.824 31.593 114.175 25.6869 104.581 27.9956C94.9865 30.3043 89.0804 39.9536 91.3891 49.5479C93.6978 59.1422 103.347 65.0483 112.941 62.7396Z" fill="white" stroke="#263238" stroke-miterlimit="10"/>
<path d="M124.023 41.8107C126.43 35.3211 122.904 28.0287 116.147 25.5227C109.391 23.0166 101.962 26.2459 99.5553 32.7355C97.1483 39.2251 100.674 46.5175 107.431 49.0236C114.188 51.5296 121.616 48.3003 124.023 41.8107Z" fill="#263238" stroke="#263238" stroke-miterlimit="10"/>
<path d="M123.929 34.7898C124.52 36.9011 124.481 39.1389 123.818 41.2287" stroke="white" stroke-width="0.75" stroke-linecap="round" stroke-linejoin="round"/>
<path d="M123.026 42.9204C123.026 42.9204 122.233 43.9389 121.781 44.5057" stroke="white" stroke-width="0.75" stroke-linecap="round" stroke-linejoin="round"/>
<path d="M104.497 29.3651C104.497 29.3651 102.69 31.4957 103.82 34.1122" stroke="white" stroke-width="0.75" stroke-linecap="round" stroke-linejoin="round"/>
<path d="M108.763 63.2386C112.055 63.2445 115.285 62.3357 118.091 60.6136C116.007 58.6917 110.582 53.9062 108.026 53.6974C105.349 53.4801 97.5383 55.9815 95.0369 56.8125C96.7125 58.8259 98.811 60.4455 101.183 61.5561C103.556 62.6668 106.143 63.2412 108.763 63.2386Z" fill="white" stroke="#263238" stroke-miterlimit="10"/>
<path d="M111.401 55.9517C111.473 55.7386 111.537 55.5256 111.605 55.3508C110.233 54.4389 108.942 53.7741 108.026 53.6974C106.913 53.6859 105.804 53.8134 104.723 54.0767C104.25 55.3551 104.126 56.6335 103.743 58.8111C103.223 61.7557 104.003 62.6207 106.168 61.4957C108.332 60.3707 110.535 58.5469 111.401 55.9517Z" fill="white" stroke="#263238" stroke-miterlimit="10"/>
<path d="M106.206 50.4929C106.206 50.4929 106.726 51.4474 106.121 53.6974C105.516 55.9474 103.99 59.6633 104.697 60.3707C105.405 61.0781 109.67 57.8565 109.841 55.4318C110.011 53.0071 110.016 48.1577 110.016 48.1577L106.206 50.4929Z" fill="white"/>
<mask id="mask4_34_2255" style="mask-type:luminance" maskUnits="userSpaceOnUse" x="104" y="48" width="7" height="13">
<path d="M106.206 50.4929C106.206 50.4929 106.726 51.4474 106.121 53.6974C105.516 55.9474 103.99 59.6633 104.697 60.3707C105.405 61.0781 109.67 57.8565 109.841 55.4318C110.011 53.0071 110.016 48.1577 110.016 48.1577L106.206 50.4929Z" fill="white"/>
</mask>
<g mask="url(#mask4_34_2255)">
<g style="mix-blend-mode:multiply" opacity="0.5">
<path d="M106.406 51.9503L109.142 54.0809L108.933 57.49C109.418 56.8981 109.732 56.1849 109.841 55.4275C110.016 53.0028 110.016 48.1534 110.016 48.1534L106.206 50.4886C106.391 50.9521 106.46 51.454 106.406 51.9503Z" fill="#E1C5AC"/>
</g>
</g>
<path d="M106.206 50.4929C106.206 50.4929 106.726 51.4474 106.121 53.6974C105.516 55.9474 103.99 59.6633 104.697 60.3707C105.405 61.0781 109.67 57.8565 109.841 55.4318C110.011 53.0071 110.016 48.1577 110.016 48.1577L106.206 50.4929Z" stroke="#263238" stroke-miterlimit="10"/>
<path d="M101.864 39.8437C101.864 39.8437 101.259 38.2841 100.479 39.4176C99.6989 40.5511 100.649 41.9275 101.084 41.9275C101.518 41.9275 101.864 39.8437 101.864 39.8437Z" fill="white" stroke="#263238" stroke-miterlimit="10"/>
<path d="M103.866 34.8196C103.866 34.8196 101.357 39.7542 100.751 43.1335C100.146 46.5128 102.656 51.6179 105.166 51.6179C107.676 51.6179 111.558 47.723 111.558 47.723C111.558 47.723 115.193 47.8082 115.713 46.598C116.233 45.3878 115.628 44.4332 114.673 44.4332H112.768C112.768 44.4332 112.249 44.6932 112.509 42.2684C112.768 39.8437 113.548 38.7187 113.548 38.7187C113.548 38.7187 106.977 39.2344 103.866 34.8196Z" fill="white"/>
<mask id="mask5_34_2255" style="mask-type:luminance" maskUnits="userSpaceOnUse" x="100" y="34" width="16" height="18">
<path d="M103.866 34.8196C103.866 34.8196 101.357 39.7542 100.751 43.1335C100.146 46.5128 102.656 51.6179 105.166 51.6179C107.676 51.6179 111.558 47.723 111.558 47.723C111.558 47.723 115.193 47.8082 115.713 46.598C116.233 45.3878 115.628 44.4332 114.673 44.4332H112.768C112.768 44.4332 112.249 44.6932 112.509 42.2684C112.768 39.8437 113.548 38.7187 113.548 38.7187C113.548 38.7187 106.977 39.2344 103.866 34.8196Z" fill="white"/>
</mask>
<g mask="url(#mask5_34_2255)">
<g style="mix-blend-mode:multiply" opacity="0.5">
<path d="M110.523 46.1591C109.996 47.4988 109.13 48.6783 108.009 49.5816C106.888 50.4849 105.552 51.081 104.131 51.3111H104.105C104.433 51.5024 104.804 51.6065 105.183 51.6136C107.693 51.6136 111.575 47.7187 111.575 47.7187C111.575 47.7187 115.21 47.804 115.73 46.5937C116.25 45.3835 115.645 44.429 114.69 44.429H112.785C112.785 44.429 112.266 44.6889 112.526 42.2642C112.785 39.8395 113.565 38.7145 113.565 38.7145C113.565 38.7145 113.139 38.7443 112.436 38.7145H112.406" fill="#E1C5AC"/>
</g>
</g>
<path d="M103.866 34.8196C103.866 34.8196 101.357 39.7542 100.751 43.1335C100.146 46.5128 102.656 51.6179 105.166 51.6179C107.676 51.6179 111.558 47.723 111.558 47.723C111.558 47.723 115.193 47.8082 115.713 46.598C116.233 45.3878 115.628 44.4332 114.673 44.4332H112.768C112.768 44.4332 112.249 44.6932 112.509 42.2684C112.768 39.8437 113.548 38.7187 113.548 38.7187C113.548 38.7187 106.977 39.2344 103.866 34.8196Z" stroke="#263238" stroke-miterlimit="10"/>
<path d="M104.327 40.3423C104.224 40.794 104.011 41.1307 103.854 41.0966C103.696 41.0625 103.653 40.6704 103.756 40.2102C103.858 39.75 104.071 39.4219 104.229 39.456C104.386 39.49 104.42 39.8864 104.327 40.3423Z" fill="#263238"/>
<path d="M108.396 42.1577C108.294 42.6094 108.081 42.9503 107.923 42.9119C107.766 42.8736 107.723 42.4858 107.825 42.0298C107.928 41.5739 108.141 41.2372 108.298 41.2756C108.456 41.3139 108.499 41.706 108.396 42.1577Z" fill="#263238"/>
<path d="M104.991 41.4886C104.991 41.4886 103.087 42.8736 103.347 43.2187C104.057 43.8301 104.931 44.2211 105.861 44.3437C106.641 44.3437 106.466 43.3934 106.466 43.3934" stroke="#263238" stroke-linecap="round" stroke-linejoin="round"/>
<path d="M103.607 45.473C104.559 45.9921 105.649 46.2035 106.726 46.0781C107.17 46.0345 107.598 45.8863 107.975 45.6456C108.351 45.4049 108.665 45.0785 108.891 44.6932" stroke="#263238" stroke-linecap="round" stroke-linejoin="round"/>
<path d="M103.781 38.2841C103.781 38.2841 104.301 37.1591 105.341 38.4588" stroke="#263238" stroke-linecap="round" stroke-linejoin="round"/>
<path d="M108.196 39.8437C108.196 39.8437 109.93 39.3238 109.93 41.054" stroke="#263238" stroke-linecap="round" stroke-linejoin="round"/>
<path d="M49.4645 63.0033C59.2019 61.4017 65.7972 52.2098 64.1957 42.4724C62.5942 32.7351 53.4022 26.1397 43.6649 27.7412C33.9275 29.3428 27.3321 38.5347 28.9337 48.2721C30.5352 58.0094 39.7272 64.6048 49.4645 63.0033Z" fill="#E1C5AC" stroke="#263238" stroke-miterlimit="10"/>
<path opacity="0.3" d="M49.4645 63.0033C59.2019 61.4017 65.7972 52.2098 64.1957 42.4724C62.5942 32.7351 53.4022 26.1397 43.6649 27.7412C33.9275 29.3428 27.3321 38.5347 28.9337 48.2721C30.5352 58.0094 39.7272 64.6048 49.4645 63.0033Z" fill="white" stroke="#263238" stroke-miterlimit="10"/>
<path d="M34.2699 54.4347C33.9631 55.6577 32.5653 55.4872 32.9915 56.9915C35.8467 60.3338 39.8342 62.5057 44.1908 63.0915C48.5475 63.6772 52.9671 62.6357 56.6037 60.1662C57.8821 58.6534 58.6491 57.0639 58.6832 55.7855C58.7983 51.8821 54.6733 48.9673 54.4517 47.0881C54.2301 45.2088 56.0114 40.9602 56.0114 40.9602C56.0114 40.9602 59.1307 40.5128 60.2472 37.7301C61.3636 34.9474 57.1193 28.6875 53.3267 26.7912C49.5341 24.8949 43.1847 26.5696 40.0653 31.1378C36.946 35.706 40.7344 39.7202 38.7273 41.8381C36.7202 43.956 31.4829 44.0668 30.9247 48.3026C30.3665 52.5384 34.6023 53.0966 34.2699 54.4347Z" fill="#263238" stroke="#263238" stroke-miterlimit="10"/>
<path d="M53.3395 31.0398C53.3395 31.0398 54.4688 33.8054 50.071 35.4375C45.6733 37.0696 42.2813 36.1918 41.1477 39.081C40.0142 41.9702 40.8963 43.9858 41.0242 45.473C41.152 46.9602 37.6151 46.7258 35.4844 48.6136C33.3537 50.5014 37.6151 52.7599 38.7528 54.017C39.8906 55.2741 39.6307 57.1577 37.6193 57.7883" stroke="white" stroke-width="0.75" stroke-linecap="round" stroke-linejoin="round"/>
<path d="M40.0185 36.8225C40.0185 36.8225 41.6506 32.7997 44.1648 32.169C46.679 31.5384 49.4446 33.4261 51.3281 31.6662C53.2116 29.9063 52.8366 28.6534 51.4517 27.6477" stroke="white" stroke-width="0.75" stroke-linecap="round" stroke-linejoin="round"/>
<path d="M55.223 32.6719C55.223 32.6719 59.625 35.5653 58.1165 37.8281C56.608 40.0909 56.1051 37.3253 56.1051 37.3253" stroke="white" stroke-width="0.75" stroke-linecap="round" stroke-linejoin="round"/>
<path d="M36.8736 60.3793C40.2115 62.5365 44.1737 63.5184 48.1326 63.1695C52.0916 62.8206 55.821 61.1609 58.7301 58.4531C57.4145 57.2446 56.0193 56.1256 54.554 55.1037C51.7671 53.2074 49.5384 52.5469 47.9787 52.6492C47.9787 52.6492 46.7514 53.2074 44.4119 55.4361C42.8864 56.8892 39.2216 59.0497 36.8736 60.3793Z" fill="white" stroke="#263238" stroke-miterlimit="10"/>
<path d="M52.0994 55.7131C52.1007 54.9716 51.9945 54.2338 51.7841 53.5227C50.604 52.9328 49.2977 52.6403 47.9787 52.6705C47.9787 52.6705 47.0028 53.0966 45.1406 54.8011C45.1012 55.1164 45.0813 55.4337 45.081 55.7514C45.081 58.679 46.6491 61.0483 48.5881 61.0483C50.527 61.0483 52.0994 58.6406 52.0994 55.7131Z" fill="white" stroke="#263238" stroke-miterlimit="10"/>
<path d="M47.0838 46.9645C47.0838 46.9645 47.0838 50.0881 46.7514 52.9858C46.419 55.8835 46.8622 59.0028 48.9801 59.2244C51.098 59.446 50.7614 54.4346 50.5398 52.4275C50.4083 51.1682 50.4083 49.8986 50.5398 48.6392L47.0838 46.9645Z" fill="white"/>
<mask id="mask6_34_2255" style="mask-type:luminance" maskUnits="userSpaceOnUse" x="46" y="46" width="5" height="14">
<path d="M47.0838 46.9645C47.0838 46.9645 47.0838 50.0881 46.7514 52.9858C46.419 55.8835 46.8622 59.0028 48.9801 59.2244C51.098 59.446 50.7614 54.4346 50.5398 52.4275C50.4083 51.1682 50.4083 49.8986 50.5398 48.6392L47.0838 46.9645Z" fill="white"/>
</mask>
<g mask="url(#mask6_34_2255)">
<g style="mix-blend-mode:multiply" opacity="0.5">
<path d="M46.6875 53.6591L50.4503 50.0114C50.4503 49.8963 50.4503 49.7855 50.4503 49.6832L49.6832 48.2557L47.071 46.9773C47.071 46.9773 47.071 50.1008 46.7386 52.9986C46.7259 53.2074 46.7045 53.4332 46.6875 53.6591Z" fill="#E1C5AC"/>
</g>
</g>
<path d="M47.0838 46.9645C47.0838 46.9645 47.0838 50.0881 46.7514 52.9858C46.419 55.8835 46.8622 59.0028 48.9801 59.2244C51.098 59.446 50.7614 54.4346 50.5398 52.4275C50.4083 51.1682 50.4083 49.8986 50.5398 48.6392L47.0838 46.9645Z" stroke="#263238" stroke-miterlimit="10"/>
<path d="M54.6648 33.0341C54.6648 33.0341 54.8864 34.483 51.098 36.2685C47.3097 38.054 45.4134 39.4986 45.081 41.169C44.7486 42.8395 44.6335 43.5128 44.6335 43.5128C44.6335 43.5128 43.8537 41.9489 42.4048 42.7287C40.956 43.5085 42.2941 46.5213 43.6321 46.6321C44.9702 46.7429 45.3026 46.2955 45.3026 46.2955C45.3026 46.2955 49.6492 50.642 52.2102 50.642C54.7713 50.642 55.777 48.1918 56.3352 43.8239C56.8764 39.6307 54.6648 33.0341 54.6648 33.0341Z" fill="white"/>
<mask id="mask7_34_2255" style="mask-type:luminance" maskUnits="userSpaceOnUse" x="41" y="33" width="16" height="18">
<path d="M54.6648 33.0341C54.6648 33.0341 54.8864 34.483 51.098 36.2685C47.3097 38.054 45.4134 39.4986 45.081 41.169C44.7486 42.8395 44.6335 43.5128 44.6335 43.5128C44.6335 43.5128 43.8537 41.9489 42.4048 42.7287C40.956 43.5085 42.2941 46.5213 43.6321 46.6321C44.9702 46.7429 45.3026 46.2955 45.3026 46.2955C45.3026 46.2955 49.6492 50.642 52.2102 50.642C54.7713 50.642 55.777 48.1918 56.3352 43.8239C56.8764 39.6307 54.6648 33.0341 54.6648 33.0341Z" fill="white"/>
</mask>
<g mask="url(#mask7_34_2255)">
<g style="mix-blend-mode:multiply" opacity="0.5">
<path d="M46.2997 41.9744C46.4349 40.5707 46.9343 39.2266 47.7486 38.0753C46.1591 39.1151 45.2941 40.0952 45.081 41.169C44.7443 42.8438 44.6335 43.5128 44.6335 43.5128C44.6335 43.5128 43.8537 41.9489 42.4048 42.7287C40.956 43.5085 42.2941 46.5213 43.6321 46.6321C44.9702 46.7429 45.3026 46.2955 45.3026 46.2955C45.3026 46.2955 49.6492 50.642 52.2102 50.642C51.4499 50.2642 50.7351 49.801 50.0796 49.2614C48.5625 48.1534 46.1762 44.7443 46.2997 41.9744Z" fill="#E1C5AC"/>
</g>
</g>
<path d="M54.6648 33.0341C54.6648 33.0341 54.8864 34.483 51.098 36.2685C47.3097 38.054 45.4134 39.4986 45.081 41.169C44.7486 42.8395 44.6335 43.5128 44.6335 43.5128C44.6335 43.5128 43.8537 41.9489 42.4048 42.7287C40.956 43.5085 42.2941 46.5213 43.6321 46.6321C44.9702 46.7429 45.3026 46.2955 45.3026 46.2955C45.3026 46.2955 49.6492 50.642 52.2102 50.642C54.7713 50.642 55.777 48.1918 56.3352 43.8239C56.8764 39.6307 54.6648 33.0341 54.6648 33.0341Z" stroke="#263238" stroke-miterlimit="10"/>
<path d="M53.8935 39.7969C53.767 40.1423 53.7145 40.5106 53.7395 40.8776C53.7644 41.2447 53.8663 41.6024 54.0384 41.9276C54.6222 43.0227 54.9162 43.3849 54.6989 43.679C54.6366 43.7801 54.5549 43.8679 54.4586 43.9373C54.3623 44.0068 54.2533 44.0567 54.1377 44.084C54.0221 44.1113 53.9023 44.1155 53.7851 44.0965C53.6679 44.0775 53.5555 44.0355 53.4546 43.973" stroke="#263238" stroke-linecap="round" stroke-linejoin="round"/>
<path d="M53.4545 46.5937C53.4545 46.5937 51.3239 47.3991 50.6037 45.8608" stroke="#263238" stroke-linecap="round" stroke-linejoin="round"/>
<path d="M51.3366 41.4418C51.3366 41.9062 51.2045 42.294 51.0426 42.294C50.8807 42.294 50.7528 41.919 50.7528 41.4418C50.7528 40.9645 50.8807 40.5895 51.0426 40.5895C51.2045 40.5895 51.3366 40.9773 51.3366 41.4418Z" fill="#263238"/>
<path d="M54.9162 41.331C55.0786 41.331 55.2102 40.9551 55.2102 40.4915C55.2102 40.0278 55.0786 39.652 54.9162 39.652C54.7538 39.652 54.6222 40.0278 54.6222 40.4915C54.6222 40.9551 54.7538 41.331 54.9162 41.331Z" fill="#263238"/>
<path d="M49.2188 38.9957C49.2188 38.9957 49.6449 37.8239 51.4091 38.0455" stroke="#263238" stroke-linecap="round" stroke-linejoin="round"/>
<path d="M53.9659 37.8239C53.9659 37.8239 54.4773 36.5838 55.5724 37.6065" stroke="#263238" stroke-linecap="round" stroke-linejoin="round"/>
</g>
<defs>
<clipPath id="clip0_34_2255">
<rect width="154.261" height="150" fill="white" transform="translate(0.869324)"/>
</clipPath>
</defs>
</svg>
